<?xml version="1.0" encoding="UTF-8"?>
<svg width="1000px" height="389px" viewBox="0 0 1000 389" version="1.1" xmlns="http://www.w3.org/2000/svg" xmlns:xlink="http://www.w3.org/1999/xlink">
    <title>Logo/Horizontal/ExpressVPN_Horizontal_Logo_Red</title>
    <g id="Logo/Horizontal/ExpressVPN_Horizontal_Logo_Red" stroke="none" stroke-width="1" fill="none" fill-rule="evenodd">
        <g id="ExpressVPN/Horizontal/Brand" transform="translate(162.500000, 130.000000)" fill="#DA3940">
            <path d="M250.999138,78.32622 L246.985345,91.90734 L205.890517,91.90734 L205.890517,89.99298 L211.210345,86.33454 L211.210345,42.63966 L205.890517,38.98122 L205.890517,37.06686 L248.90431,37.06686 L249.863793,38.02404 L247.161207,50.29968 L245.242241,50.29968 C243.496552,42.7248 240.964655,41.68248 228.400862,41.68248 L222.380172,41.68248 L222.380172,61.78842 L242.185345,60.57066 L242.622414,60.91638 L240.788793,67.35864 L240.266379,67.53408 L222.380172,65.79516 L222.380172,87.29172 L228.051724,87.29172 C238.259483,87.29172 243.584483,85.72824 249.080172,77.6322 L250.999138,78.32622 Z M674.262931,38.98122 L668.940517,42.63966 L668.940517,91.20816 L668.244828,91.90734 L659.780172,91.90734 L628.541379,48.82134 L628.541379,86.33454 L634.825862,89.99298 L634.825862,91.90734 L617.547414,91.90734 L617.547414,89.99298 L622.872414,86.33454 L622.872414,42.4668 L616.763793,38.98122 L616.763793,37.06686 L633.253448,37.06686 L663.268966,78.67452 L663.268966,42.63966 L656.987069,38.98122 L656.987069,37.06686 L674.262931,37.06686 L674.262931,38.98122 Z M584.392241,86.33454 L590.674138,89.99298 L590.674138,91.90734 L567.990517,91.90734 L567.990517,89.99298 L573.312931,86.33454 L573.312931,42.63966 L567.990517,38.98122 L567.990517,37.06686 L591.025862,37.06686 C607.078448,37.06686 615.367241,42.55194 615.367241,53.0835 C615.367241,65.09598 603.677586,73.27974 586.313793,73.27974 C585.527586,73.27974 584.82931,73.27974 584.392241,73.18944 L584.392241,86.33454 Z M563.627586,38.98122 L558.217241,42.55194 L540.243103,91.90734 L529.859483,91.90734 L510.75,42.81252 L505.168966,38.98122 L505.168966,37.06686 L527.67931,37.06686 L527.67931,38.98122 L522.183621,42.7248 L537.713793,82.50324 L538.324138,82.50324 L551.412931,42.63966 L545.826724,38.98122 L545.826724,37.06686 L563.627586,37.06686 L563.627586,38.98122 Z M584.392241,68.6667 C596.606897,69.015 604.024138,63.18162 604.024138,53.34924 C604.024138,45.25062 599.839655,41.16132 591.460345,41.16132 C589.10431,41.16132 586.401724,41.76762 584.392241,42.7248 L584.392241,68.6667 Z M352.65,69.18786 C352.65,82.85412 343.487069,92.60394 330.659483,92.60394 C326.909483,92.60394 323.767241,91.64418 320.715517,90.34128 L320.715517,103.74438 L326.997414,107.40024 L326.997414,109.3146 L304.74569,109.3146 L304.74569,107.40024 L310.158621,103.74438 L310.158621,56.04534 L304.74569,52.82292 L304.74569,50.90598 L319.143103,48.03444 L320.715517,49.08192 L320.715517,55.1733 C324.118966,50.82084 329.526724,48.12474 335.112931,48.12474 C345.493966,48.12474 352.65,57.17538 352.65,69.18786 L352.65,69.18786 Z M387.812069,57.69912 L385.893103,57.69912 C384.496552,56.82708 383.012069,56.39106 381.527586,56.39106 C378.302586,56.39106 375.248276,57.6114 372.543103,59.9592 L372.543103,86.33454 L379.000862,89.99298 L379.000862,91.90734 L356.487931,91.90734 L356.487931,89.99298 L361.898276,86.33454 L361.898276,56.04534 L356.487931,52.82292 L356.487931,50.90598 L370.97069,48.03444 L372.543103,49.08192 L372.543103,55.95504 C375.333621,51.42972 380.221552,48.20988 385.106897,48.20988 C387.377586,48.20988 389.296552,48.82134 390.866379,49.9488 L387.812069,57.69912 Z M420.618103,69.70902 C414.773276,69.70902 408.230172,69.53616 401.076724,69.27558 C402.036207,79.0254 407.356034,84.68076 416.081897,84.68076 C421.316379,84.68076 424.719828,83.37528 427.598276,80.93976 L429.431897,82.33296 C426.553448,89.20608 420.09569,92.94966 411.718966,92.94966 C398.893966,92.94966 390.256034,84.1596 390.256034,70.75392 C390.256034,57.9597 398.806034,48.03444 411.806897,48.03444 C417.827586,48.03444 422.363793,49.9488 425.593966,53.69496 C428.821552,57.43854 430.391379,62.30958 430.306034,68.31582 L428.994828,69.62388 C427.251724,69.70902 424.458621,69.70902 420.618103,69.70902 L420.618103,69.70902 Z M437.893966,79.54656 L439.727586,79.54656 C443.131034,85.11678 448.10431,88.33662 452.37931,88.33662 C456.219828,88.33662 458.575862,86.33454 458.575862,83.20242 C458.575862,79.6317 456.481034,77.71734 451.243966,75.71784 L447.318103,74.23692 C439.903448,71.45052 435.452586,67.01292 435.452586,61.17954 C435.452586,53.95554 442.259483,48.38532 452.37931,48.38532 C458.224138,48.38532 463.807759,49.77852 467.912069,52.21404 L463.722414,59.3529 L461.976724,59.3529 C459.098276,54.91272 455.521552,52.65006 451.331897,52.65006 C447.581897,52.65006 445.137931,54.73728 445.137931,57.6114 C445.137931,60.74352 447.406034,62.65788 454.125,65.27142 L458.575862,67.01292 C465.380172,69.62388 468.346552,73.71576 468.346552,79.0254 C468.346552,87.37944 461.627586,92.60394 451.419828,92.60394 C445.137931,92.60394 438.768103,90.95016 434.143966,88.07862 L437.893966,79.54656 Z M476.198276,79.54656 L478.031897,79.54656 C481.435345,85.11678 486.408621,88.33662 490.681034,88.33662 C494.521552,88.33662 496.877586,86.33454 496.877586,83.20242 C496.877586,79.6317 494.785345,77.71734 489.548276,75.71784 L485.622414,74.23692 C478.205172,71.45052 473.756897,67.01292 473.756897,61.17954 C473.756897,53.95554 480.561207,48.38532 490.681034,48.38532 C496.531034,48.38532 502.112069,49.77852 506.213793,52.21404 L502.026724,59.3529 L500.278448,59.3529 C497.4,54.91272 493.825862,52.65006 489.636207,52.65006 C485.883621,52.65006 483.439655,54.73728 483.439655,57.6114 C483.439655,60.74352 485.710345,62.65788 492.42931,65.27142 L496.877586,67.01292 C503.684483,69.62388 506.650862,73.71576 506.650862,79.0254 C506.650862,87.37944 499.931897,92.60394 489.721552,92.60394 C483.439655,92.60394 477.072414,90.95016 472.44569,88.07862 L476.198276,79.54656 Z M282.848276,69.88446 L295.673276,86.33454 L300.47069,89.99298 L300.47069,91.90734 L278.746552,91.90734 L278.746552,89.99298 L283.285345,86.59512 L274.556897,74.76066 L266.180172,86.59512 L271.241379,89.99298 L271.241379,91.90734 L253.965517,91.90734 L253.965517,89.99298 L259.290517,86.42226 L271.766379,71.1048 L259.026724,54.91272 L254.141379,51.084 L254.141379,49.16964 L275.777586,49.16964 L275.777586,51.084 L271.32931,54.4767 L279.967241,66.2286 L288.343966,54.4767 L283.285345,51.084 L283.285345,49.16964 L300.558621,49.16964 L300.558621,51.084 L295.236207,54.65214 L282.848276,69.88446 Z M419.221552,64.05108 C418.262069,56.39106 414.687931,52.7352 409.887931,52.7352 C404.653448,52.7352 401.162069,57.87198 400.900862,65.18628 L419.221552,64.05108 Z M342.178448,73.62546 C342.178448,63.96594 337.468966,55.95504 329.875862,55.95504 C326.736207,55.95504 323.681897,57.00252 320.715517,59.17746 L320.715517,82.0698 C323.159483,85.81338 326.909483,87.6426 331.357759,87.6426 C337.991379,87.6426 342.178448,82.4181 342.178448,73.62546 L342.178448,73.62546 Z M41.787931,129 C23.7284483,129 12.2094828,118.87866 12.2094828,104.8125 C12.2094828,100.17882 13.5853448,94.52088 18.9155172,83.02698 L0,83.02698 L17.3663793,45.97044 L138.253448,45.97044 C141.005172,45.97044 142.89569,43.91418 142.89569,41.51478 C142.89569,39.11022 141.005172,37.05138 138.253448,37.05138 L40.4094828,37.05138 L49.0086207,18.69726 C54.3387931,7.37622 65.8603448,0 78.4112069,0 L119.511207,0 C143.239655,0 160.77931,16.29528 160.77931,37.5648 C160.77931,62.7843 137.565517,83.02698 110.741379,83.02698 L31.2982759,83.02698 C28.887931,88.00122 31.6396552,91.94862 37.487069,91.94862 L100.766379,91.94862 C111.256034,91.94862 119.337931,99.32226 119.337931,108.75732 C119.337931,119.56494 108.850862,129 96.9827586,129 L41.787931,129 L41.787931,129 Z" id="Fill-1"></path>
        </g>
    </g>
</svg>