<?xml version="1.0" encoding="UTF-8" standalone="no"?>
<svg
   viewBox="0 0 275.16266 94.398649"
   height="94.398651"
   width="275.16266"
   xml:space="preserve"
   id="svg2"
   version="1.1"
   xmlns="http://www.w3.org/2000/svg"
   xmlns:svg="http://www.w3.org/2000/svg"
   xmlns:rdf="http://www.w3.org/1999/02/22-rdf-syntax-ns#"
   xmlns:cc="http://creativecommons.org/ns#"
   xmlns:dc="http://purl.org/dc/elements/1.1/"><metadata
     id="metadata8"><rdf:RDF><cc:Work
         rdf:about=""><dc:format>image/svg+xml</dc:format><dc:type
           rdf:resource="http://purl.org/dc/dcmitype/StillImage" /></cc:Work></rdf:RDF></metadata><defs
     id="defs6"><linearGradient
       id="linearGradient28"
       spreadMethod="pad"
       gradientTransform="matrix(-29.071358,24.447769,24.447769,29.071358,257.82178,623.56689)"
       gradientUnits="userSpaceOnUse"
       y2="0"
       x2="1"
       y1="0"
       x1="0"><stop
         id="stop24"
         offset="0"
         style="stop-opacity:1;stop-color:#f39a12" /><stop
         id="stop26"
         offset="1"
         style="stop-opacity:1;stop-color:#e84427" /></linearGradient><linearGradient
       id="linearGradient48"
       spreadMethod="pad"
       gradientTransform="matrix(-78.670784,-6.9e-6,-6.9e-6,78.670784,180.50391,610.34033)"
       gradientUnits="userSpaceOnUse"
       y2="0"
       x2="1"
       y1="0"
       x1="0"><stop
         id="stop44"
         offset="0"
         style="stop-opacity:1;stop-color:#f39a12" /><stop
         id="stop46"
         offset="1"
         style="stop-opacity:1;stop-color:#e84427" /></linearGradient><linearGradient
       id="linearGradient68"
       spreadMethod="pad"
       gradientTransform="matrix(-78.669823,-6.9e-6,-6.9e-6,78.669823,193.50293,610.54346)"
       gradientUnits="userSpaceOnUse"
       y2="0"
       x2="1"
       y1="0"
       x1="0"><stop
         id="stop64"
         offset="0"
         style="stop-opacity:1;stop-color:#f39a12" /><stop
         id="stop66"
         offset="1"
         style="stop-opacity:1;stop-color:#e84427" /></linearGradient><linearGradient
       id="linearGradient88"
       spreadMethod="pad"
       gradientTransform="matrix(-78.669823,-6.9e-6,-6.9e-6,78.669823,180.50293,611.22412)"
       gradientUnits="userSpaceOnUse"
       y2="0"
       x2="1"
       y1="0"
       x1="0"><stop
         id="stop84"
         offset="0"
         style="stop-opacity:1;stop-color:#f39a12" /><stop
         id="stop86"
         offset="1"
         style="stop-opacity:1;stop-color:#e84427" /></linearGradient><linearGradient
       id="linearGradient108"
       spreadMethod="pad"
       gradientTransform="matrix(-78.669823,-6.9e-6,-6.9e-6,78.669823,180.50293,611.18994)"
       gradientUnits="userSpaceOnUse"
       y2="0"
       x2="1"
       y1="0"
       x1="0"><stop
         id="stop104"
         offset="0"
         style="stop-opacity:1;stop-color:#f39a12" /><stop
         id="stop106"
         offset="1"
         style="stop-opacity:1;stop-color:#e84427" /></linearGradient><clipPath
       id="clipPath118"
       clipPathUnits="userSpaceOnUse"><path
         id="path116"
         d="M 0,853.228 H 606.619 V 0 H 0 Z" /></clipPath><linearGradient
       id="linearGradient254"
       spreadMethod="pad"
       gradientTransform="matrix(-56.047253,47.133343,47.133343,56.047253,190.05127,735.146)"
       gradientUnits="userSpaceOnUse"
       y2="0"
       x2="1"
       y1="0"
       x1="0"><stop
         id="stop250"
         offset="0"
         style="stop-opacity:1;stop-color:#f39a12" /><stop
         id="stop252"
         offset="1"
         style="stop-opacity:1;stop-color:#e84427" /></linearGradient><linearGradient
       id="linearGradient274"
       spreadMethod="pad"
       gradientTransform="matrix(-56.047253,47.133343,47.133343,56.047253,190.05127,735.146)"
       gradientUnits="userSpaceOnUse"
       y2="0"
       x2="1"
       y1="0"
       x1="0"><stop
         id="stop270"
         offset="0"
         style="stop-opacity:1;stop-color:#f39a12" /><stop
         id="stop272"
         offset="1"
         style="stop-opacity:1;stop-color:#e84427" /></linearGradient></defs><g
     transform="matrix(1.3333333,0,0,-1.3333333,-74.907997,874.37863)"
     id="g10"><g
       id="g12"><g
         id="g14"><g
           id="g20"><g
             id="g22"><path
               id="path30"
               style="fill:url(#linearGradient28);stroke:none"
               d="m 245.821,653.916 c 0,-0.043 0.01,-0.084 0.011,-0.126 v 0 l -14.285,-3.828 c -0.305,0.618 -0.935,1.049 -1.672,1.049 v 0 c -1.032,0 -1.868,-0.838 -1.868,-1.868 v 0 c 0,-0.735 0.43,-1.366 1.048,-1.671 v 0 l -3.827,-14.288 c -0.043,0.004 -0.082,0.014 -0.125,0.014 v 0 c -1.035,0 -1.87,-0.836 -1.87,-1.869 v 0 c 0,-1.029 0.835,-1.867 1.87,-1.867 v 0 c 0.386,0 0.744,0.117 1.042,0.317 v 0 l 10.448,-10.446 c -0.204,-0.299 -0.319,-0.657 -0.319,-1.043 v 0 c 0,-1.03 0.835,-1.867 1.87,-1.867 v 0 c 1.029,0 1.866,0.837 1.866,1.867 v 0 c 0,0.042 -0.01,0.085 -0.013,0.128 v 0 l 14.286,3.826 c 0.306,-0.619 0.934,-1.049 1.671,-1.049 v 0 c 1.036,0 1.869,0.836 1.869,1.867 v 0 c 0,0.736 -0.428,1.366 -1.049,1.671 v 0 l 3.815,14.246 c 0.035,-0.002 0.065,-0.01 0.099,-0.01 v 0 c 1.032,0 1.865,0.837 1.865,1.869 v 0 c 0,1.03 -0.833,1.866 -1.865,1.866 v 0 c -0.367,0 -0.705,-0.109 -0.996,-0.29 v 0 l -10.455,10.459 c 0.201,0.299 0.319,0.657 0.319,1.043 v 0 c 0,1.031 -0.837,1.868 -1.87,1.868 v 0 c -1.032,0 -1.865,-0.837 -1.865,-1.868 m -14.269,-5.582 c 0.117,0.247 0.19,0.517 0.19,0.809 v 0 c 0,0.042 -0.011,0.084 -0.013,0.127 v 0 l 14.034,3.76 -10.163,-6.975 c -0.336,0.33 -0.796,0.536 -1.305,0.536 v 0 c -0.293,0 -0.567,-0.072 -0.81,-0.19 v 0 z m 4.597,-3.747 c 0.002,0.046 0.012,0.091 0.012,0.137 v 0 c 0,0.264 -0.055,0.515 -0.155,0.742 v 0 l 10.375,7.12 c 0.336,-0.332 0.797,-0.537 1.305,-0.537 v 0 c 0.16,0 0.311,0.025 0.458,0.06 v 0 l 5.42,-11.466 c -0.237,-0.174 -0.428,-0.405 -0.561,-0.67 v 0 z m 12.742,7.62 10.283,-10.282 c -0.201,-0.28 -0.323,-0.613 -0.343,-0.973 v 0 L 256.2,640.21 c -0.339,0.485 -0.897,0.802 -1.531,0.802 v 0 c -0.16,0 -0.311,-0.025 -0.458,-0.062 v 0 z m -18.207,-4.74 1.932,-1.932 c -0.117,-0.248 -0.19,-0.52 -0.19,-0.811 v 0 c 0,-0.509 0.206,-0.97 0.536,-1.308 v 0 l -6.975,-10.163 3.761,14.034 c 0.042,-0.003 0.082,-0.013 0.127,-0.013 v 0 c 0.291,0 0.562,0.073 0.809,0.193 m 4.463,-4.397 c 0.35,0.183 0.636,0.471 0.814,0.826 v 0 l 16.854,-4.614 c -0.005,-0.045 -0.012,-0.09 -0.012,-0.137 v 0 c 0,-0.391 0.12,-0.755 0.325,-1.056 v 0 l -11.923,-12.113 c -0.296,0.195 -0.649,0.311 -1.03,0.311 v 0 c -0.055,0 -0.11,-0.011 -0.165,-0.017 v 0 z m -8.236,-12.176 c 0.036,0.141 0.057,0.285 0.057,0.435 v 0 c 0,0.511 -0.204,0.971 -0.535,1.309 v 0 l 7.121,10.371 c 0.225,-0.098 0.476,-0.152 0.741,-0.152 v 0 c 0.056,0 0.107,0.01 0.16,0.015 v 0 l 4.869,-16.801 c -0.263,-0.133 -0.489,-0.325 -0.662,-0.565 v 0 z m 28.259,6.46 c 0.749,0.211 1.306,0.872 1.355,1.675 v 0 l 2.631,0.74 c 0.186,-0.266 0.444,-0.479 0.74,-0.617 v 0 l -3.749,-13.993 z m -13.146,-12.736 c -0.035,0.315 -0.14,0.607 -0.308,0.856 v 0 l 11.924,12.114 c 0.236,-0.158 0.518,-0.256 0.816,-0.291 v 0 l 0.995,-12.443 c -0.619,-0.176 -1.106,-0.66 -1.283,-1.277 v 0 z m -15.26,5.556 11.6,-5.318 c -0.035,-0.141 -0.056,-0.287 -0.056,-0.437 v 0 c 0,-0.697 0.386,-1.299 0.952,-1.619 v 0 l -0.884,-2.666 c -0.078,0.01 -0.155,0.024 -0.232,0.024 v 0 c -0.387,0 -0.747,-0.118 -1.045,-0.318 v 0 z m 15.198,-6.268 11.933,-1.025 -14.084,-3.772 c -0.164,0.338 -0.427,0.616 -0.756,0.801 v 0 l 0.884,2.665 c 0.078,-0.009 0.156,-0.023 0.236,-0.023 v 0 c 0.854,0 1.563,0.574 1.787,1.354" /></g></g></g></g><g
       id="g32"><g
         id="g34"><g
           id="g40"><g
             id="g42"><path
               id="path50"
               style="fill:url(#linearGradient48);stroke:none"
               d="m 61.564,628.796 c -3.589,-4.601 -5.383,-10.685 -5.383,-18.251 v 0 c 0,-7.75 1.794,-13.948 5.383,-18.593 v 0 c 3.588,-4.644 8.463,-6.967 14.622,-6.967 v 0 c 6.158,0 11.052,2.323 14.683,6.967 v 0 c 3.629,4.645 5.445,10.843 5.445,18.593 v 0 c 0,7.566 -1.816,13.65 -5.445,18.251 v 0 c -3.631,4.599 -8.525,6.899 -14.683,6.899 v 0 c -6.159,0 -11.034,-2.3 -14.622,-6.899 m 4.405,-32.697 c -2.448,3.647 -3.671,8.463 -3.671,14.446 v 0 c 0,5.845 1.223,10.558 3.671,14.138 v 0 c 2.447,3.579 5.852,5.37 10.217,5.37 v 0 c 4.323,0 7.728,-1.791 10.217,-5.37 v 0 c 2.486,-3.58 3.732,-8.293 3.732,-14.138 v 0 c 0,-5.983 -1.246,-10.799 -3.732,-14.446 v 0 c -2.489,-3.648 -5.894,-5.472 -10.217,-5.472 v 0 c -4.365,0 -7.77,1.824 -10.217,5.472" /></g></g></g></g><g
       id="g52"><g
         id="g54"><g
           id="g60"><g
             id="g62"><path
               id="path70"
               style="fill:url(#linearGradient68);stroke:none"
               d="M 102.492,634.607 V 586.48 h 5.567 v 18.966 h 12.114 c 4.16,0 7.667,1.382 10.523,4.146 v 0 c 2.854,2.763 4.282,6.298 4.282,10.604 v 0 c 0,4.396 -1.428,7.896 -4.282,10.502 v 0 c -2.856,2.606 -6.363,3.909 -10.523,3.909 v 0 z m 5.567,-5.71 h 12.114 c 2.243,0 4.273,-0.657 6.088,-1.97 v 0 c 1.813,-1.315 2.722,-3.559 2.722,-6.731 v 0 c 0,-3.172 -0.909,-5.472 -2.722,-6.9 v 0 c -1.815,-1.427 -3.845,-2.14 -6.088,-2.14 v 0 h -12.114 z" /></g></g></g></g><g
       id="g72"><g
         id="g74"><g
           id="g80"><g
             id="g82"><path
               id="path90"
               style="fill:url(#linearGradient88);stroke:none"
               d="m 153.269,634.88 h -13.826 v -47.312 h 13.826 c 6.078,0 10.951,2.267 14.622,6.797 v 0 c 3.671,4.531 5.507,10.151 5.507,16.859 v 0 c 0,6.705 -1.836,12.337 -5.507,16.891 v 0 c -3.636,4.512 -8.451,6.765 -14.447,6.765 v 0 c -0.058,0 -0.117,0 -0.175,0 m -11.134,-2.516 h 10.645 c 5.669,0 10.013,-2.039 13.031,-6.117 v 0 c 3.018,-4.079 4.528,-9.087 4.528,-15.023 v 0 c 0,-5.484 -1.51,-10.39 -4.528,-14.717 v 0 c -3.018,-4.328 -7.362,-6.492 -13.031,-6.492 v 0 h -10.645 z" /></g></g></g></g><g
       id="g92"><g
         id="g94"><g
           id="g100"><g
             id="g102"><path
               id="path110"
               style="fill:url(#linearGradient108);stroke:none"
               d="m 182.758,629.033 c -3.426,-4.713 -5.139,-10.649 -5.139,-17.809 v 0 c 0,-7.206 1.713,-13.166 5.139,-17.879 v 0 c 3.426,-4.712 8.014,-7.068 13.765,-7.068 v 0 c 5.668,0 9.86,1.824 12.573,5.471 v 0 c 2.712,3.648 4.333,6.719 4.863,9.211 v 0 l -2.691,0.068 c -0.613,-2.357 -2.102,-4.928 -4.467,-7.715 v 0 c -2.365,-2.787 -5.791,-4.181 -10.278,-4.181 v 0 c -4.813,0 -8.678,2.107 -11.594,6.322 v 0 c -2.916,4.214 -4.374,9.471 -4.374,15.771 v 0 c 0,6.254 1.468,11.488 4.405,15.703 v 0 c 2.937,4.213 6.771,6.321 11.502,6.321 v 0 c 4.405,0 7.831,-1.36 10.278,-4.079 v 0 c 2.448,-2.719 4.017,-5.302 4.711,-7.749 v 0 l 2.875,-0.068 c -0.571,2.628 -2.305,5.745 -5.2,9.346 v 0 c -2.896,3.604 -7.097,5.405 -12.603,5.405 v 0 c -5.751,0 -10.339,-2.357 -13.765,-7.07" /></g></g></g></g><g
       id="g112"><g
         clip-path="url(#clipPath118)"
         id="g114"><g
           transform="translate(256.1475,513.2124)"
           id="g120"><path
             id="path122"
             style="fill:#494545;fill-opacity:1;fill-rule:nonzero;stroke:none"
             d="m 0,0 -0.978,12.194 c 0.749,0.211 1.306,0.873 1.356,1.676 l 2.631,0.74 c 0.185,-0.266 0.443,-0.479 0.739,-0.617 z m -17.092,-5.249 0.884,2.664 c 0.078,-0.008 0.155,-0.023 0.235,-0.023 0.855,0 1.564,0.575 1.787,1.355 L -2.253,-2.278 -16.336,-6.05 c -0.165,0.338 -0.428,0.615 -0.756,0.801 m -9.18,27.364 c 0.291,0 0.561,0.073 0.809,0.193 l 1.932,-1.933 c -0.117,-0.247 -0.191,-0.519 -0.191,-0.811 0,-0.508 0.206,-0.969 0.536,-1.307 l -6.974,-10.164 3.761,14.035 c 0.042,-0.003 0.082,-0.013 0.127,-0.013 m 15.887,5.756 -10.162,-6.975 c -0.336,0.331 -0.797,0.536 -1.306,0.536 -0.293,0 -0.566,-0.073 -0.809,-0.191 l -1.934,1.934 c 0.117,0.247 0.191,0.517 0.191,0.809 0,0.042 -0.011,0.084 -0.013,0.126 z m -12.209,-10.02 c 0.226,-0.099 0.476,-0.153 0.741,-0.153 0.056,0 0.108,0.01 0.161,0.015 l 4.868,-16.8 c -0.263,-0.135 -0.488,-0.326 -0.661,-0.566 l -11.751,5.387 c 0.035,0.142 0.057,0.287 0.057,0.437 0,0.51 -0.205,0.971 -0.536,1.308 z m 7.652,-17.034 c -0.296,0.196 -0.65,0.311 -1.031,0.311 -0.054,0 -0.109,-0.012 -0.165,-0.018 l -4.863,16.801 c 0.351,0.183 0.637,0.471 0.814,0.826 l 16.855,-4.615 c -0.006,-0.045 -0.013,-0.09 -0.013,-0.137 0,-0.39 0.12,-0.755 0.325,-1.054 z m 5.175,26.61 c 0.336,-0.332 0.797,-0.537 1.306,-0.537 0.16,0 0.311,0.025 0.458,0.061 l 5.42,-11.467 C -2.821,15.31 -3.012,15.079 -3.145,14.813 l -16.853,4.615 c 0.002,0.046 0.012,0.091 0.012,0.136 0,0.264 -0.055,0.516 -0.156,0.743 z m -8.237,-32.428 c -0.386,0 -0.747,-0.118 -1.045,-0.318 l -10.335,10.334 11.601,-5.319 c -0.035,-0.14 -0.056,-0.286 -0.056,-0.436 0,-0.697 0.386,-1.298 0.952,-1.619 l -0.884,-2.665 c -0.078,0.009 -0.156,0.023 -0.233,0.023 m 16.025,3.419 -12.144,1.041 c -0.035,0.315 -0.141,0.607 -0.309,0.856 l 11.924,12.114 c 0.237,-0.158 0.519,-0.256 0.817,-0.291 l 0.995,-12.444 c -0.619,-0.175 -1.106,-0.66 -1.283,-1.276 m 2.032,16.633 c -0.339,0.485 -0.898,0.802 -1.532,0.802 -0.16,0 -0.31,-0.026 -0.458,-0.062 L -7.256,27.048 3.026,16.766 c -0.2,-0.28 -0.323,-0.613 -0.342,-0.973 z m 4.487,2.494 c -0.366,0 -0.704,-0.108 -0.995,-0.29 L -6.91,27.714 c 0.2,0.299 0.318,0.657 0.318,1.043 0,1.031 -0.837,1.868 -1.869,1.868 -1.032,0 -1.866,-0.837 -1.866,-1.868 0,-0.043 0.01,-0.084 0.012,-0.126 l -14.286,-3.828 c -0.305,0.618 -0.934,1.049 -1.671,1.049 -1.033,0 -1.869,-0.837 -1.869,-1.868 0,-0.735 0.431,-1.367 1.049,-1.672 L -30.92,8.024 c -0.042,0.004 -0.082,0.014 -0.125,0.014 -1.035,0 -1.869,-0.836 -1.869,-1.867 0,-1.03 0.834,-1.868 1.869,-1.868 0.386,0 0.744,0.116 1.042,0.317 l 10.448,-10.445 c -0.203,-0.3 -0.318,-0.658 -0.318,-1.043 0,-1.031 0.834,-1.869 1.869,-1.869 1.029,0 1.866,0.838 1.866,1.869 0,0.041 -0.009,0.084 -0.012,0.127 l 14.286,3.826 c 0.305,-0.619 0.934,-1.049 1.671,-1.049 1.035,0 1.869,0.836 1.869,1.867 0,0.737 -0.429,1.366 -1.05,1.67 L 4.441,13.819 C 4.477,13.817 4.507,13.81 4.54,13.81 c 1.032,0 1.866,0.837 1.866,1.869 0,1.03 -0.834,1.866 -1.866,1.866" /></g><g
           transform="translate(86.4023,484.1528)"
           id="g124"><path
             id="path126"
             style="fill:#494545;fill-opacity:1;fill-rule:nonzero;stroke:none"
             d="m 0,0 c 2.487,3.646 3.732,8.463 3.732,14.445 0,5.846 -1.245,10.558 -3.732,14.139 -2.488,3.578 -5.894,5.369 -10.217,5.369 -4.364,0 -7.769,-1.791 -10.217,-5.369 -2.447,-3.581 -3.67,-8.293 -3.67,-14.139 0,-5.982 1.223,-10.799 3.67,-14.445 2.448,-3.648 5.853,-5.473 10.217,-5.473 4.323,0 7.729,1.825 10.217,5.473 m 4.467,32.695 c 3.629,-4.599 5.444,-10.683 5.444,-18.25 0,-7.75 -1.815,-13.947 -5.444,-18.591 -3.631,-4.645 -8.526,-6.969 -14.684,-6.969 -6.158,0 -11.033,2.324 -14.621,6.969 -3.589,4.644 -5.384,10.841 -5.384,18.591 0,7.567 1.795,13.651 5.384,18.25 3.588,4.6 8.463,6.901 14.621,6.901 6.158,0 11.053,-2.301 14.684,-6.901" /></g><g
           transform="translate(126.2607,501.3501)"
           id="g128"><path
             id="path130"
             style="fill:#494545;fill-opacity:1;fill-rule:nonzero;stroke:none"
             d="m 0,0 c 1.813,1.428 2.722,3.727 2.722,6.899 0,3.172 -0.909,5.415 -2.722,6.73 -1.815,1.314 -3.845,1.972 -6.088,1.972 H -18.201 V -2.141 H -6.088 C -3.845,-2.141 -1.815,-1.428 0,0 M 4.436,17.402 C 7.289,14.795 8.718,11.295 8.718,6.899 8.718,2.594 7.289,-0.941 4.436,-3.705 1.58,-6.469 -1.928,-7.852 -6.088,-7.852 h -12.113 v -18.964 h -5.568 v 48.127 h 17.681 c 4.16,0 7.668,-1.303 10.524,-3.909" /></g><g
           transform="translate(165.8115,484.561)"
           id="g132"><path
             id="path134"
             style="fill:#494545;fill-opacity:1;fill-rule:nonzero;stroke:none"
             d="m 0,0 c 3.018,4.326 4.527,9.232 4.527,14.717 0,5.935 -1.509,10.943 -4.527,15.021 -3.019,4.079 -7.362,6.118 -13.031,6.118 H -23.677 V -6.492 h 10.646 C -7.362,-6.492 -3.019,-4.328 0,0 M 2.08,31.607 C 5.751,27.054 7.586,21.422 7.586,14.717 7.586,8.008 5.751,2.389 2.08,-2.143 -1.591,-6.674 -6.465,-8.939 -12.542,-8.939 h -13.826 v 47.31 h 13.826 c 6.077,0.045 10.951,-2.209 14.622,-6.764" /></g><g
           transform="translate(211.4512,509.4731)"
           id="g136"><path
             id="path138"
             style="fill:#494545;fill-opacity:1;fill-rule:nonzero;stroke:none"
             d="m 0,0 c -0.694,2.447 -2.264,5.03 -4.711,7.75 -2.447,2.719 -5.873,4.078 -10.278,4.078 -4.732,0 -8.566,-2.107 -11.502,-6.322 -2.937,-4.215 -4.405,-9.447 -4.405,-15.701 0,-6.301 1.459,-11.557 4.375,-15.772 2.916,-4.215 6.78,-6.322 11.593,-6.322 4.487,0 7.912,1.394 10.278,4.182 2.365,2.787 3.854,5.357 4.466,7.714 l 2.692,-0.068 c -0.53,-2.492 -2.152,-5.562 -4.863,-9.211 -2.713,-3.646 -6.905,-5.471 -12.573,-5.471 -5.751,0 -10.34,2.356 -13.765,7.069 -3.426,4.713 -5.139,10.672 -5.139,17.879 0,7.158 1.713,13.095 5.139,17.808 3.425,4.713 8.014,7.071 13.765,7.071 5.506,0 9.706,-1.802 12.603,-5.405 2.895,-3.603 4.629,-6.718 5.2,-9.347 z" /></g><path
           id="path140"
           style="fill:#494545;fill-opacity:1;fill-rule:nonzero;stroke:none"
           d="M 271.555,327.918 H 38.224 v 92 h 233.331 z" /><g
           transform="translate(256.1475,379.6934)"
           id="g142"><path
             id="path144"
             style="fill:#ffffff;fill-opacity:1;fill-rule:nonzero;stroke:none"
             d="m 0,0 -0.978,12.195 c 0.749,0.209 1.306,0.871 1.356,1.674 l 2.631,0.74 c 0.185,-0.265 0.443,-0.478 0.739,-0.617 z m -17.092,-5.25 0.884,2.666 c 0.078,-0.01 0.155,-0.023 0.235,-0.023 0.855,0 1.564,0.574 1.787,1.353 l 11.933,-1.023 -14.083,-3.774 c -0.165,0.338 -0.428,0.617 -0.756,0.801 m -9.18,27.365 c 0.291,0 0.561,0.072 0.809,0.192 l 1.932,-1.932 c -0.117,-0.248 -0.191,-0.52 -0.191,-0.811 0,-0.509 0.206,-0.97 0.536,-1.306 l -6.974,-10.164 3.761,14.033 c 0.042,-0.002 0.082,-0.012 0.127,-0.012 m 15.887,5.756 -10.162,-6.975 c -0.336,0.331 -0.797,0.536 -1.306,0.536 -0.293,0 -0.566,-0.073 -0.809,-0.192 l -1.934,1.934 c 0.117,0.248 0.191,0.517 0.191,0.81 0,0.041 -0.011,0.084 -0.013,0.125 z M -22.594,17.85 c 0.226,-0.098 0.476,-0.153 0.741,-0.153 0.056,0 0.108,0.012 0.161,0.016 l 4.868,-16.801 c -0.263,-0.133 -0.488,-0.326 -0.661,-0.564 l -11.751,5.386 c 0.035,0.141 0.057,0.286 0.057,0.436 0,0.51 -0.205,0.971 -0.536,1.309 z m 7.652,-17.034 c -0.296,0.196 -0.65,0.311 -1.031,0.311 -0.054,0 -0.109,-0.012 -0.165,-0.016 l -4.863,16.799 c 0.351,0.184 0.637,0.473 0.814,0.826 l 16.855,-4.613 c -0.006,-0.045 -0.013,-0.092 -0.013,-0.139 0,-0.39 0.12,-0.754 0.325,-1.054 z m 5.175,26.61 c 0.336,-0.332 0.797,-0.535 1.306,-0.535 0.16,0 0.311,0.023 0.458,0.06 l 5.42,-11.467 c -0.238,-0.175 -0.429,-0.406 -0.562,-0.671 l -16.853,4.615 c 0.002,0.045 0.012,0.092 0.012,0.136 0,0.264 -0.055,0.516 -0.156,0.743 z m -8.237,-32.428 c -0.386,0 -0.747,-0.117 -1.045,-0.318 l -10.335,10.334 11.601,-5.319 c -0.035,-0.138 -0.056,-0.285 -0.056,-0.435 0,-0.697 0.386,-1.299 0.952,-1.619 l -0.884,-2.666 c -0.078,0.009 -0.156,0.023 -0.233,0.023 m 16.025,3.42 -12.144,1.041 c -0.035,0.314 -0.141,0.607 -0.309,0.855 l 11.924,12.114 c 0.237,-0.158 0.519,-0.254 0.817,-0.289 L -0.696,-0.307 C -1.315,-0.48 -1.802,-0.965 -1.979,-1.582 m 2.032,16.633 c -0.339,0.484 -0.898,0.803 -1.532,0.803 -0.16,0 -0.31,-0.026 -0.458,-0.063 L -7.256,27.047 3.026,16.766 c -0.2,-0.28 -0.323,-0.614 -0.342,-0.973 z m 4.487,2.494 c -0.366,0 -0.704,-0.109 -0.995,-0.291 L -6.91,27.715 c 0.2,0.297 0.318,0.656 0.318,1.041 0,1.031 -0.837,1.869 -1.869,1.869 -1.032,0 -1.866,-0.838 -1.866,-1.869 0,-0.043 0.01,-0.084 0.012,-0.125 l -14.286,-3.828 c -0.305,0.619 -0.934,1.049 -1.671,1.049 -1.033,0 -1.869,-0.838 -1.869,-1.868 0,-0.736 0.431,-1.367 1.049,-1.672 L -30.92,8.025 c -0.042,0.004 -0.082,0.012 -0.125,0.012 -1.035,0 -1.869,-0.836 -1.869,-1.867 0,-1.029 0.834,-1.867 1.869,-1.867 0.386,0 0.744,0.117 1.042,0.316 l 10.448,-10.445 c -0.203,-0.299 -0.318,-0.658 -0.318,-1.043 0,-1.031 0.834,-1.867 1.869,-1.867 1.029,0 1.866,0.836 1.866,1.867 0,0.043 -0.009,0.084 -0.012,0.127 l 14.286,3.826 c 0.305,-0.617 0.934,-1.049 1.671,-1.049 1.035,0 1.869,0.836 1.869,1.867 0,0.737 -0.429,1.368 -1.05,1.672 L 4.441,13.82 c 0.036,-0.004 0.066,-0.011 0.099,-0.011 1.032,0 1.866,0.837 1.866,1.869 0,1.031 -0.834,1.867 -1.866,1.867" /></g><g
           transform="translate(86.4023,350.6328)"
           id="g146"><path
             id="path148"
             style="fill:#ffffff;fill-opacity:1;fill-rule:nonzero;stroke:none"
             d="m 0,0 c 2.487,3.646 3.732,8.463 3.732,14.445 0,5.846 -1.245,10.559 -3.732,14.139 -2.488,3.58 -5.894,5.371 -10.217,5.371 -4.364,0 -7.769,-1.791 -10.217,-5.371 -2.447,-3.58 -3.67,-8.293 -3.67,-14.139 0,-5.982 1.223,-10.799 3.67,-14.445 2.448,-3.648 5.853,-5.473 10.217,-5.473 4.323,0 7.729,1.825 10.217,5.473 M 4.467,32.697 C 8.096,28.096 9.911,22.012 9.911,14.445 9.911,6.695 8.096,0.498 4.467,-4.146 c -3.631,-4.645 -8.526,-6.967 -14.684,-6.967 -6.158,0 -11.033,2.322 -14.621,6.967 -3.589,4.644 -5.384,10.841 -5.384,18.591 0,7.567 1.795,13.651 5.384,18.252 3.588,4.598 8.463,6.899 14.621,6.899 6.158,0 11.053,-2.301 14.684,-6.899" /></g><g
           transform="translate(126.2607,367.8301)"
           id="g150"><path
             id="path152"
             style="fill:#ffffff;fill-opacity:1;fill-rule:nonzero;stroke:none"
             d="m 0,0 c 1.813,1.428 2.722,3.729 2.722,6.9 0,3.172 -0.909,5.414 -2.722,6.731 -1.815,1.312 -3.845,1.971 -6.088,1.971 H -18.201 V -2.141 H -6.088 C -3.845,-2.141 -1.815,-1.428 0,0 M 4.436,17.402 C 7.289,14.797 8.718,11.295 8.718,6.9 8.718,2.594 7.289,-0.939 4.436,-3.703 1.58,-6.469 -1.928,-7.85 -6.088,-7.85 h -12.113 v -18.966 h -5.568 v 48.127 h 17.681 c 4.16,0 7.668,-1.303 10.524,-3.909" /></g><g
           transform="translate(165.8115,351.041)"
           id="g154"><path
             id="path156"
             style="fill:#ffffff;fill-opacity:1;fill-rule:nonzero;stroke:none"
             d="M 0,0 C 3.018,4.326 4.527,9.232 4.527,14.717 4.527,20.652 3.018,25.66 0,29.74 c -3.019,4.078 -7.362,6.117 -13.031,6.117 H -23.677 V -6.492 h 10.646 C -7.362,-6.492 -3.019,-4.328 0,0 M 2.08,31.609 C 5.751,27.055 7.586,21.422 7.586,14.717 7.586,8.01 5.751,2.389 2.08,-2.143 -1.591,-6.672 -6.465,-8.939 -12.542,-8.939 h -13.826 v 47.312 h 13.826 c 6.077,0.043 10.951,-2.211 14.622,-6.764" /></g><g
           transform="translate(211.4512,375.9531)"
           id="g158"><path
             id="path160"
             style="fill:#ffffff;fill-opacity:1;fill-rule:nonzero;stroke:none"
             d="m 0,0 c -0.694,2.447 -2.264,5.031 -4.711,7.75 -2.447,2.719 -5.873,4.078 -10.278,4.078 -4.732,0 -8.566,-2.107 -11.502,-6.32 -2.937,-4.215 -4.405,-9.449 -4.405,-15.703 0,-6.299 1.459,-11.557 4.375,-15.772 2.916,-4.215 6.78,-6.32 11.593,-6.32 4.487,0 7.912,1.392 10.278,4.18 2.365,2.787 3.854,5.359 4.466,7.714 l 2.692,-0.068 c -0.53,-2.492 -2.152,-5.562 -4.863,-9.209 -2.713,-3.648 -6.905,-5.473 -12.573,-5.473 -5.751,0 -10.34,2.358 -13.765,7.069 -3.426,4.713 -5.139,10.674 -5.139,17.879 0,7.16 1.713,13.095 5.139,17.808 3.425,4.713 8.014,7.071 13.765,7.071 5.506,0 9.706,-1.801 12.603,-5.405 2.895,-3.601 4.629,-6.718 5.2,-9.345 z" /></g><path
           id="path162"
           style="fill:#f0861b;fill-opacity:1;fill-rule:nonzero;stroke:none"
           d="M 271.555,187.918 H 38.224 v 92 h 233.331 z" /><g
           transform="translate(256.1475,239.6934)"
           id="g164"><path
             id="path166"
             style="fill:#ffffff;fill-opacity:1;fill-rule:nonzero;stroke:none"
             d="m 0,0 -0.978,12.195 c 0.749,0.211 1.306,0.871 1.356,1.674 l 2.631,0.742 c 0.185,-0.267 0.443,-0.48 0.739,-0.619 z m -17.092,-5.25 0.884,2.666 c 0.078,-0.008 0.155,-0.023 0.235,-0.023 0.855,0 1.564,0.574 1.787,1.353 l 11.933,-1.023 -14.083,-3.774 c -0.165,0.338 -0.428,0.617 -0.756,0.801 m -9.18,27.365 c 0.291,0 0.561,0.074 0.809,0.194 l 1.932,-1.934 c -0.117,-0.246 -0.191,-0.52 -0.191,-0.811 0,-0.507 0.206,-0.968 0.536,-1.306 l -6.974,-10.164 3.761,14.035 c 0.042,-0.004 0.082,-0.014 0.127,-0.014 m 15.887,5.756 -10.162,-6.975 c -0.336,0.331 -0.797,0.536 -1.306,0.536 -0.293,0 -0.566,-0.073 -0.809,-0.19 l -1.934,1.934 c 0.117,0.246 0.191,0.517 0.191,0.808 0,0.043 -0.011,0.084 -0.013,0.127 z M -22.594,17.852 c 0.226,-0.1 0.476,-0.155 0.741,-0.155 0.056,0 0.108,0.012 0.161,0.016 l 4.868,-16.801 c -0.263,-0.133 -0.488,-0.326 -0.661,-0.564 l -11.751,5.386 c 0.035,0.141 0.057,0.286 0.057,0.436 0,0.51 -0.205,0.971 -0.536,1.309 z m 7.652,-17.034 c -0.296,0.194 -0.65,0.309 -1.031,0.309 -0.054,0 -0.109,-0.01 -0.165,-0.016 l -4.863,16.799 c 0.351,0.184 0.637,0.473 0.814,0.826 l 16.855,-4.613 c -0.006,-0.045 -0.013,-0.09 -0.013,-0.137 0,-0.39 0.12,-0.756 0.325,-1.056 z m 5.175,26.61 c 0.336,-0.332 0.797,-0.537 1.306,-0.537 0.16,0 0.311,0.025 0.458,0.06 l 5.42,-11.467 c -0.238,-0.173 -0.429,-0.404 -0.562,-0.67 l -16.853,4.614 c 0.002,0.047 0.012,0.092 0.012,0.136 0,0.264 -0.055,0.516 -0.156,0.743 z m -8.237,-32.43 c -0.386,0 -0.747,-0.117 -1.045,-0.316 l -10.335,10.332 11.601,-5.317 c -0.035,-0.14 -0.056,-0.287 -0.056,-0.437 0,-0.697 0.386,-1.299 0.952,-1.619 l -0.884,-2.666 c -0.078,0.009 -0.156,0.023 -0.233,0.023 m 16.025,3.42 -12.144,1.041 c -0.035,0.314 -0.141,0.607 -0.309,0.855 L -2.508,12.43 c 0.237,-0.159 0.519,-0.256 0.817,-0.291 l 0.995,-12.444 c -0.619,-0.175 -1.106,-0.66 -1.283,-1.277 m 2.032,16.633 c -0.339,0.484 -0.898,0.803 -1.532,0.803 -0.16,0 -0.31,-0.026 -0.458,-0.063 L -7.256,27.049 3.026,16.766 c -0.2,-0.28 -0.323,-0.612 -0.342,-0.973 z m 4.487,2.494 c -0.366,0 -0.704,-0.108 -0.995,-0.289 L -6.91,27.715 c 0.2,0.299 0.318,0.656 0.318,1.043 0,1.031 -0.837,1.867 -1.869,1.867 -1.032,0 -1.866,-0.836 -1.866,-1.867 0,-0.043 0.01,-0.084 0.012,-0.127 l -14.286,-3.828 c -0.305,0.619 -0.934,1.049 -1.671,1.049 -1.033,0 -1.869,-0.836 -1.869,-1.868 0,-0.736 0.431,-1.367 1.049,-1.672 L -30.92,8.025 c -0.042,0.004 -0.082,0.014 -0.125,0.014 -1.035,0 -1.869,-0.836 -1.869,-1.869 0,-1.029 0.834,-1.867 1.869,-1.867 0.386,0 0.744,0.117 1.042,0.316 l 10.448,-10.445 c -0.203,-0.299 -0.318,-0.656 -0.318,-1.043 0,-1.031 0.834,-1.867 1.869,-1.867 1.029,0 1.866,0.836 1.866,1.867 0,0.043 -0.009,0.084 -0.012,0.127 l 14.286,3.828 c 0.305,-0.619 0.934,-1.049 1.671,-1.049 1.035,0 1.869,0.836 1.869,1.865 0,0.737 -0.429,1.368 -1.05,1.672 L 4.441,13.82 c 0.036,-0.002 0.066,-0.009 0.099,-0.009 1.032,0 1.866,0.837 1.866,1.867 0,1.031 -0.834,1.867 -1.866,1.867" /></g><g
           transform="translate(86.4023,210.6328)"
           id="g168"><path
             id="path170"
             style="fill:#ffffff;fill-opacity:1;fill-rule:nonzero;stroke:none"
             d="m 0,0 c 2.487,3.646 3.732,8.463 3.732,14.445 0,5.846 -1.245,10.559 -3.732,14.139 -2.488,3.58 -5.894,5.371 -10.217,5.371 -4.364,0 -7.769,-1.791 -10.217,-5.371 -2.447,-3.58 -3.67,-8.293 -3.67,-14.139 0,-5.982 1.223,-10.799 3.67,-14.445 2.448,-3.648 5.853,-5.473 10.217,-5.473 4.323,0 7.729,1.825 10.217,5.473 M 4.467,32.697 C 8.096,28.098 9.911,22.012 9.911,14.445 9.911,6.695 8.096,0.498 4.467,-4.146 c -3.631,-4.645 -8.526,-6.967 -14.684,-6.967 -6.158,0 -11.033,2.322 -14.621,6.967 -3.589,4.644 -5.384,10.841 -5.384,18.591 0,7.567 1.795,13.653 5.384,18.252 3.588,4.6 8.463,6.901 14.621,6.901 6.158,0 11.053,-2.301 14.684,-6.901" /></g><g
           transform="translate(126.2607,227.8301)"
           id="g172"><path
             id="path174"
             style="fill:#ffffff;fill-opacity:1;fill-rule:nonzero;stroke:none"
             d="m 0,0 c 1.813,1.428 2.722,3.729 2.722,6.9 0,3.172 -0.909,5.416 -2.722,6.731 -1.815,1.314 -3.845,1.971 -6.088,1.971 H -18.201 V -2.141 H -6.088 C -3.845,-2.141 -1.815,-1.428 0,0 M 4.436,17.402 C 7.289,14.797 8.718,11.297 8.718,6.9 8.718,2.594 7.289,-0.939 4.436,-3.703 1.58,-6.469 -1.928,-7.85 -6.088,-7.85 h -12.113 v -18.966 h -5.568 v 48.128 h 17.681 c 4.16,0 7.668,-1.304 10.524,-3.91" /></g><g
           transform="translate(165.8115,211.041)"
           id="g176"><path
             id="path178"
             style="fill:#ffffff;fill-opacity:1;fill-rule:nonzero;stroke:none"
             d="m 0,0 c 3.018,4.326 4.527,9.232 4.527,14.717 0,5.935 -1.509,10.945 -4.527,15.023 -3.019,4.078 -7.362,6.117 -13.031,6.117 H -23.677 V -6.492 h 10.646 C -7.362,-6.492 -3.019,-4.328 0,0 M 2.08,31.609 C 5.751,27.055 7.586,21.422 7.586,14.717 7.586,8.01 5.751,2.389 2.08,-2.143 -1.591,-6.672 -6.465,-8.939 -12.542,-8.939 h -13.826 v 47.312 h 13.826 c 6.077,0.045 10.951,-2.209 14.622,-6.764" /></g><g
           transform="translate(211.4512,235.9551)"
           id="g180"><path
             id="path182"
             style="fill:#ffffff;fill-opacity:1;fill-rule:nonzero;stroke:none"
             d="m 0,0 c -0.694,2.447 -2.264,5.029 -4.711,7.748 -2.447,2.719 -5.873,4.08 -10.278,4.08 -4.732,0 -8.566,-2.107 -11.502,-6.322 -2.937,-4.215 -4.405,-9.449 -4.405,-15.703 0,-6.299 1.459,-11.557 4.375,-15.772 2.916,-4.215 6.78,-6.32 11.593,-6.32 4.487,0 7.912,1.393 10.278,4.18 2.365,2.787 3.854,5.359 4.466,7.714 l 2.692,-0.068 c -0.53,-2.492 -2.152,-5.562 -4.863,-9.209 -2.713,-3.648 -6.905,-5.473 -12.573,-5.473 -5.751,0 -10.34,2.358 -13.765,7.069 -3.426,4.713 -5.139,10.674 -5.139,17.879 0,7.16 1.713,13.095 5.139,17.81 3.425,4.713 8.014,7.069 13.765,7.069 5.506,0 9.706,-1.801 12.603,-5.405 2.895,-3.601 4.629,-6.718 5.2,-9.345 z" /></g><g
           transform="translate(62.5366,692.1851)"
           id="g184"><path
             id="path186"
             style="fill:#494545;fill-opacity:1;fill-rule:nonzero;stroke:none"
             d="m 0,0 c -0.507,0.857 -1.06,1.939 -1.649,3.246 -0.595,1.304 -0.887,2.835 -0.887,4.596 0,1.751 0.292,3.284 0.887,4.608 0.589,1.318 1.142,2.41 1.649,3.267 H 1.292 C 0.52,14.261 -0.021,12.884 -0.331,11.585 -0.637,10.286 -0.792,9.037 -0.792,7.842 -0.792,6.658 -0.637,5.417 -0.331,4.125 -0.021,2.833 0.52,1.456 1.292,0 Z" /></g><g
           transform="translate(75.8608,699.8335)"
           id="g188"><path
             id="path190"
             style="fill:#494545;fill-opacity:1;fill-rule:nonzero;stroke:none"
             d="M 0,0 V -6.997 H -1.703 V 7.352 H 0 V 1.744 H 1.864 V 0 Z m -3.799,-4.241 c -0.305,0.196 -0.633,0.435 -0.983,0.71 -0.355,0.276 -0.715,0.638 -1.087,1.085 -0.285,0.345 -0.524,0.683 -0.719,1.002 -0.196,0.321 -0.37,0.65 -0.527,0.985 -0.157,-0.401 -0.352,-0.777 -0.587,-1.132 -0.236,-0.355 -0.524,-0.747 -0.864,-1.181 -0.286,-0.36 -0.58,-0.672 -0.884,-0.93 -0.302,-0.261 -0.635,-0.529 -0.998,-0.799 l -1.289,1.221 c 0.574,0.404 1.096,0.843 1.562,1.322 0.464,0.48 0.86,1.016 1.181,1.615 0.372,0.696 0.626,1.42 0.764,2.176 0.137,0.756 0.205,1.539 0.205,2.355 V 6.552 H -6.25 V 4.188 c 0,-0.619 0.075,-1.386 0.219,-2.304 0.148,-0.923 0.445,-1.715 0.894,-2.391 0.403,-0.587 0.809,-1.068 1.22,-1.444 0.413,-0.372 0.816,-0.686 1.217,-0.937 z" /></g><g
           transform="translate(81.1592,704.6348)"
           id="g192"><path
             id="path194"
             style="fill:#494545;fill-opacity:1;fill-rule:nonzero;stroke:none"
             d="M 0,0 C 0.587,-1.324 0.879,-2.857 0.879,-4.608 0.879,-6.369 0.587,-7.9 0,-9.204 -0.589,-10.51 -1.14,-11.592 -1.659,-12.45 h -1.292 c 0.763,1.456 1.304,2.833 1.623,4.125 0.316,1.292 0.478,2.533 0.478,3.717 0,1.195 -0.164,2.446 -0.485,3.751 -0.324,1.304 -0.863,2.678 -1.616,4.125 h 1.292 C -1.14,2.41 -0.589,1.318 0,0" /></g><g
           transform="translate(93.957,704.6372)"
           id="g196"><path
             id="path198"
             style="fill:#494545;fill-opacity:1;fill-rule:nonzero;stroke:none"
             d="M 0,0 C -0.725,0.427 -1.582,0.64 -2.604,0.64 -3.616,0.64 -4.473,0.427 -5.192,0 -5.907,-0.433 -6.27,-1.034 -6.27,-1.814 c 0,-0.763 0.363,-1.364 1.078,-1.794 0.719,-0.44 1.576,-0.652 2.588,-0.652 1.007,0 1.872,0.212 2.592,0.652 0.722,0.43 1.084,1.031 1.084,1.794 C 1.072,-1.034 0.71,-0.433 0,0 m -1.816,-8.899 h 6.001 v -1.445 H -9.39 v 1.445 h 5.987 v 3.163 c -1.398,0.121 -2.495,0.551 -3.292,1.287 -0.802,0.73 -1.193,1.614 -1.193,2.655 0,1.147 0.476,2.086 1.42,2.828 0.954,0.743 2.241,1.113 3.864,1.113 1.638,0 2.927,-0.367 3.872,-1.106 0.946,-0.732 1.415,-1.681 1.415,-2.835 0,-1.041 -0.396,-1.925 -1.207,-2.655 -0.805,-0.736 -1.904,-1.166 -3.292,-1.287 z" /></g><g
           transform="translate(103.3999,705.6709)"
           id="g200"><path
             id="path202"
             style="fill:#494545;fill-opacity:1;fill-rule:nonzero;stroke:none"
             d="M 0,0 0.198,-3.306 H 4.083 L 4.287,0 Z m -2.889,-12.957 v 4.289 h 1.575 v -2.845 h 8.899 v -1.444 z m -0.533,9.651 h 2.074 L -1.529,0 H -3.113 V 1.427 H 7.397 V 0 H 5.811 L 5.629,-3.306 H 7.711 V -4.731 H -3.422 Z m -1.223,-2.913 h 13.57 v -1.439 h -13.57 z" /></g><g
           transform="translate(117.5859,705.7915)"
           id="g204"><path
             id="path206"
             style="fill:#494545;fill-opacity:1;fill-rule:nonzero;stroke:none"
             d="M 0,0 0.2,-2.263 H 4.088 L 4.287,0 Z m -2.889,-13.249 v 3.635 h 8.408 v 1.096 h -8.422 v 1.251 H 7.17 v -3.63 h -8.404 v -1.065 h 8.805 v -1.287 z M -3.422,-2.263 H -1.34 L -1.529,0 H -3.113 V 1.307 H 7.404 V 0 H 5.818 L 5.632,-2.263 H 7.711 V -3.564 H -3.422 Z m -1.215,-2.519 h 13.57 v -1.335 h -13.57 z" /></g><g
           transform="translate(138.1865,697.1724)"
           id="g208"><path
             id="path210"
             style="fill:#494545;fill-opacity:1;fill-rule:nonzero;stroke:none"
             d="M 0,0 V 4.714 H -1.594 V 1.323 h -1.49 v 8.704 h 1.49 V 6.238 H 0 v 4.045 H 1.5 V 0 Z m 0.647,-4.816 c -0.746,0.193 -1.627,0.633 -2.627,1.309 -1,0.686 -1.65,1.353 -1.957,2.033 -0.307,-0.71 -0.941,-1.4 -1.92,-2.071 -0.968,-0.672 -1.85,-1.1 -2.656,-1.271 l -0.971,1.222 c 1.77,0.399 2.985,1.08 3.659,2.048 0.659,0.976 0.999,1.681 0.999,2.111 v 0.343 h 1.773 V 0.565 c 0,-0.43 0.328,-1.104 0.993,-2 0.662,-0.908 1.886,-1.623 3.666,-2.159 z M -5.458,1.748 C -6.19,1.688 -6.83,1.656 -7.388,1.642 L -10.177,1.627 V 6.1 h 3.748 v 1.918 h -3.748 v 1.42 h 5.272 V 4.729 H -8.648 V 3.031 h 1.741 c 0.536,0.012 1.096,0.038 1.676,0.089 0.586,0.044 1.05,0.097 1.391,0.154 V 1.898 C -4.193,1.85 -4.731,1.806 -5.458,1.748" /></g><g
           transform="translate(145.9556,705.6875)"
           id="g212"><path
             id="path214"
             style="fill:#494545;fill-opacity:1;fill-rule:nonzero;stroke:none"
             d="m 0,0 0.201,-2.763 h 3.89 L 4.289,0 Z m 5.572,-9.665 h -6.833 v -2.048 h 6.833 z m -8.455,1.394 H 7.173 v -4.874 H -2.883 Z m -1.754,1.094 v 1.439 h 5.965 v 1.574 H -3.42 v 1.401 h 2.082 L -1.521,0 H -3.108 V 1.411 H 7.407 V 0 H 5.82 L 5.634,-2.763 h 2.08 V -4.164 H 2.966 v -1.574 h 5.968 v -1.439 z" /></g><g
           transform="translate(167.0659,707.4556)"
           id="g216"><path
             id="path218"
             style="fill:#494545;fill-opacity:1;fill-rule:nonzero;stroke:none"
             d="M 0,0 H 0.772 V -15.082 H 0 v 8.073 h -2.309 v -7.39 h -0.775 v 14.056 h 0.775 V -6.289 H 0 Z m -10.172,-2.746 v 0.688 h 5.194 c -0.077,-2.555 -0.668,-4.69 -1.755,-6.392 -1.09,-1.698 -2.307,-3.002 -3.64,-3.91 l -0.683,0.531 c 1.425,0.932 2.622,2.147 3.605,3.656 0.981,1.522 1.517,3.328 1.609,5.427 z" /></g><g
           transform="translate(181.1743,699.5679)"
           id="g220"><path
             id="path222"
             style="fill:#494545;fill-opacity:1;fill-rule:nonzero;stroke:none"
             d="M 0,0 H -0.768 V 7.888 H 0 V 4.376 H 2.167 V 3.688 H 0 Z M -8.938,-7.025 V -3.7 h 8.17 v 1.884 h -8.17 v 0.691 H 0 v -3.261 h -8.175 v -1.951 h 8.598 v -0.688 z m -0.848,8.382 h 4.929 v 2.705 h -4.929 z m 0,5.847 V 4.75 h 4.93 v 2.454 h 0.768 V 0.669 h -6.468 v 6.535 z" /></g><g
           transform="translate(195.5635,692.3735)"
           id="g224"><path
             id="path226"
             style="fill:#494545;fill-opacity:1;fill-rule:nonzero;stroke:none"
             d="M 0,0 H -0.768 V 15.082 H 0 V 8.74 H 2.35 V 8.057 H 0 Z m -10.839,12.59 v 0.69 h 7.825 v -0.69 h -3.582 v -1.657 c 0,-2.241 0.546,-3.941 1.636,-5.101 1.089,-1.154 1.796,-1.826 2.147,-2.028 L -3.299,3.118 C -3.528,3.268 -4.12,3.828 -5.083,4.792 -6.05,5.752 -6.685,7.035 -6.982,8.636 -7.25,7.059 -7.897,5.736 -8.926,4.668 -9.95,3.586 -10.643,2.939 -10.991,2.705 l -0.584,0.582 c 0.789,0.413 1.688,1.301 2.704,2.669 0.998,1.366 1.503,3.025 1.503,4.977 v 1.657 z" /></g><g
           transform="translate(206.3877,700.5171)"
           id="g228"><path
             id="path230"
             style="fill:#494545;fill-opacity:1;fill-rule:nonzero;stroke:none"
             d="M 0,0 V 0.679 H 3.246 V 6.938 H 4.012 V -8.144 H 3.246 V 0 Z m -1.492,2.968 c 0.118,0.541 0.185,1.005 0.234,1.396 h -5.245 v 0.688 h 6.109 C -0.683,1.693 -1.625,-0.775 -3.217,-2.345 -4.811,-3.91 -6.004,-4.924 -6.779,-5.381 l -0.63,0.524 c 0.942,0.517 1.91,1.225 2.9,2.135 0.995,0.908 1.732,2.019 2.232,3.328 C -2.482,0.589 -2.686,0.575 -2.883,0.558 -3.074,0.548 -3.263,0.539 -3.446,0.531 -4.016,0.493 -4.62,0.476 -5.26,0.476 h -1.69 v 0.686 h 1.734 c 0.717,0 1.311,0.019 1.799,0.05 0.268,0.022 0.507,0.041 0.724,0.056 0.218,0.012 0.447,0.029 0.708,0.067 0.217,0.546 0.379,1.095 0.493,1.633" /></g><path
           id="path232"
           style="fill:#494545;fill-opacity:1;fill-rule:nonzero;stroke:none"
           d="m 223.044,705.91 h -8.1 v -4.146 h 8.1 z m -8.863,0.686 h 9.639 v -5.521 h -9.639 z m 2.698,-8.603 v -5.451 h -0.773 v 5.451 h -3.857 v 0.686 h 13.573 v -0.686 H 221.9 v -5.619 h -0.766 v 5.619 z" /><path
           id="path234"
           style="fill:#494545;fill-opacity:1;fill-rule:nonzero;stroke:none"
           d="m 238.465,692.374 h -0.766 v 15.082 h 0.766 z m -4.289,4.185 c -1.242,-0.152 -2.5,-0.225 -3.775,-0.225 h -2.466 v 9.677 h 0.771 v -8.993 h 2.067 c 0.963,0 2.086,0.065 3.362,0.207 1.27,0.13 2.147,0.259 2.617,0.372 v -0.686 c -0.47,-0.087 -1.333,-0.207 -2.576,-0.352" /><path
           id="path236"
           style="fill:#494545;fill-opacity:1;fill-rule:nonzero;stroke:none"
           d="m 252.648,692.374 h -0.763 v 15.082 h 0.763 z m -3.721,3.566 c -0.691,-0.072 -1.413,-0.125 -2.15,-0.156 -0.86,-0.046 -1.717,-0.066 -2.567,-0.066 h -2.123 v 10.02 h 6.731 v -0.683 h -5.96 v -3.753 h 5.651 v -0.681 h -5.651 v -4.217 c 0.519,0 1.113,0 1.804,0.003 0.681,0.002 1.388,0.024 2.115,0.05 0.703,0.02 1.411,0.065 2.133,0.15 0.717,0.073 1.297,0.16 1.744,0.237 v -0.681 c -0.454,-0.078 -1.034,-0.157 -1.727,-0.223" /></g></g><g
       id="g238"><g
         id="g240"><g
           id="g246"><g
             id="g248"><path
               id="path256"
               style="fill:url(#linearGradient254);stroke:none"
               d="m 166.914,793.655 c 0,-0.082 0.019,-0.161 0.023,-0.242 v 0 l -27.543,-7.381 c -0.587,1.193 -1.799,2.024 -3.221,2.024 v 0 c -1.991,0 -3.602,-1.614 -3.602,-3.603 v 0 c 0,-1.417 0.829,-2.634 2.022,-3.221 v 0 l -7.378,-27.545 c -0.085,0.007 -0.16,0.025 -0.244,0.025 v 0 c -1.992,0 -3.603,-1.612 -3.603,-3.6 v 0 c 0,-1.985 1.611,-3.602 3.603,-3.602 v 0 c 0.744,0 1.435,0.226 2.009,0.611 v 0 l 20.144,-20.137 c -0.391,-0.575 -0.616,-1.265 -0.616,-2.01 v 0 c 0,-1.99 1.611,-3.603 3.604,-3.603 v 0 c 1.987,0 3.598,1.613 3.598,3.603 v 0 c 0,0.082 -0.016,0.16 -0.022,0.244 v 0 l 27.542,7.378 c 0.586,-1.193 1.801,-2.024 3.222,-2.024 v 0 c 1.992,0 3.603,1.613 3.603,3.601 v 0 c 0,1.418 -0.828,2.635 -2.027,3.22 v 0 l 7.359,27.467 c 0.066,-0.006 0.124,-0.021 0.188,-0.021 v 0 c 1.988,0 3.599,1.615 3.599,3.603 v 0 c 0,1.986 -1.611,3.6 -3.599,3.6 v 0 c -0.704,0 -1.36,-0.21 -1.917,-0.56 v 0 l -20.159,20.164 c 0.389,0.574 0.616,1.266 0.616,2.009 v 0 c 0,1.989 -1.613,3.602 -3.603,3.602 v 0 c -1.99,0 -3.598,-1.613 -3.598,-3.602 m -27.51,-10.761 c 0.229,0.477 0.369,0.999 0.369,1.559 v 0 c 0,0.083 -0.019,0.162 -0.026,0.244 v 0 l 27.055,7.251 -19.591,-13.447 c -0.647,0.637 -1.538,1.033 -2.519,1.033 v 0 c -0.562,0 -1.089,-0.14 -1.56,-0.368 v 0 z m 8.863,-7.223 c 0.007,0.088 0.027,0.176 0.027,0.262 v 0 c 0,0.509 -0.109,0.994 -0.3,1.431 v 0 l 19.999,13.728 c 0.647,-0.64 1.536,-1.035 2.519,-1.035 v 0 c 0.307,0 0.599,0.048 0.884,0.117 v 0 l 10.448,-22.106 c -0.462,-0.337 -0.829,-0.782 -1.083,-1.293 v 0 z m 24.568,14.69 19.821,-19.823 c -0.386,-0.538 -0.621,-1.18 -0.662,-1.875 v 0 l -5.071,-1.431 c -0.653,0.934 -1.727,1.547 -2.95,1.547 v 0 c -0.308,0 -0.601,-0.049 -0.886,-0.12 v 0 z m -35.103,-9.139 3.727,-3.725 c -0.229,-0.477 -0.37,-1.001 -0.37,-1.564 v 0 c 0,-0.98 0.396,-1.868 1.036,-2.52 v 0 l -13.449,-19.595 7.25,27.058 c 0.085,-0.006 0.162,-0.025 0.247,-0.025 v 0 c 0.559,0 1.083,0.142 1.559,0.371 m 8.605,-8.477 c 0.676,0.355 1.227,0.909 1.568,1.593 v 0 l 32.492,-8.895 c -0.007,-0.088 -0.024,-0.175 -0.024,-0.265 v 0 c 0,-0.754 0.232,-1.455 0.63,-2.035 v 0 l -22.986,-23.349 c -0.571,0.373 -1.254,0.595 -1.988,0.595 v 0 c -0.107,0 -0.21,-0.021 -0.316,-0.031 v 0 z M 130.46,749.271 c 0.068,0.272 0.109,0.55 0.109,0.841 v 0 c 0,0.983 -0.393,1.871 -1.034,2.522 v 0 l 13.728,19.996 c 0.436,-0.19 0.92,-0.295 1.429,-0.295 v 0 c 0.107,0 0.208,0.021 0.311,0.029 v 0 l 9.387,-32.388 c -0.508,-0.261 -0.945,-0.63 -1.278,-1.09 v 0 z m 54.479,12.455 c 1.445,0.406 2.515,1.682 2.611,3.229 v 0 l 5.074,1.428 c 0.358,-0.515 0.853,-0.925 1.425,-1.19 v 0 l -7.228,-26.977 z m -25.346,-24.553 c -0.067,0.606 -0.268,1.171 -0.594,1.65 v 0 l 22.986,23.355 c 0.459,-0.306 1.003,-0.494 1.578,-0.561 v 0 l 1.917,-23.991 c -1.195,-0.337 -2.132,-1.272 -2.475,-2.46 v 0 z m -29.42,10.709 22.363,-10.253 c -0.064,-0.27 -0.106,-0.551 -0.106,-0.84 v 0 c 0,-1.342 0.745,-2.502 1.838,-3.121 v 0 l -1.705,-5.139 c -0.15,0.02 -0.299,0.044 -0.451,0.044 v 0 c -0.745,0 -1.439,-0.227 -2.014,-0.613 v 0 z m 29.302,-12.083 23.004,-1.976 -27.148,-7.272 c -0.319,0.653 -0.829,1.189 -1.459,1.544 v 0 l 1.705,5.139 c 0.147,-0.018 0.3,-0.046 0.452,-0.046 v 0 c 1.646,0 3.016,1.109 3.446,2.611" /></g></g></g></g><g
       id="g258"><g
         id="g260"><g
           id="g266"><g
             id="g268"><path
               id="path276"
               style="fill:url(#linearGradient274);stroke:none"
               d="m 166.913,793.655 c 0,-0.082 0.02,-0.161 0.024,-0.242 v 0 l -27.543,-7.381 c -0.586,1.193 -1.799,2.024 -3.221,2.024 v 0 c -1.99,0 -3.602,-1.614 -3.602,-3.603 v 0 c 0,-1.417 0.829,-2.634 2.022,-3.221 v 0 l -7.378,-27.545 c -0.085,0.007 -0.159,0.025 -0.244,0.025 v 0 c -1.992,0 -3.603,-1.612 -3.603,-3.6 v 0 c 0,-1.985 1.611,-3.602 3.603,-3.602 v 0 c 0.744,0 1.435,0.226 2.009,0.611 v 0 l 20.144,-20.137 c -0.391,-0.575 -0.615,-1.265 -0.615,-2.01 v 0 c 0,-1.99 1.61,-3.603 3.604,-3.603 v 0 c 1.986,0 3.597,1.613 3.597,3.603 v 0 c 0,0.082 -0.016,0.16 -0.022,0.244 v 0 l 27.541,7.378 c 0.587,-1.193 1.802,-2.024 3.223,-2.024 v 0 c 1.993,0 3.603,1.613 3.603,3.601 v 0 c 0,1.418 -0.828,2.635 -2.027,3.22 v 0 l 7.359,27.467 c 0.065,-0.006 0.124,-0.021 0.188,-0.021 v 0 c 1.988,0 3.599,1.615 3.599,3.603 v 0 c 0,1.986 -1.611,3.6 -3.599,3.6 v 0 c -0.705,0 -1.36,-0.21 -1.917,-0.56 v 0 l -20.159,20.164 c 0.389,0.574 0.616,1.266 0.616,2.009 v 0 c 0,1.989 -1.613,3.602 -3.602,3.602 v 0 c -1.991,0 -3.6,-1.613 -3.6,-3.602 m -27.509,-10.761 c 0.229,0.477 0.369,0.999 0.369,1.559 v 0 c 0,0.083 -0.019,0.162 -0.026,0.244 v 0 l 27.054,7.251 -19.589,-13.447 c -0.648,0.637 -1.539,1.033 -2.52,1.033 v 0 c -0.562,0 -1.089,-0.14 -1.56,-0.368 v 0 z m 8.863,-7.223 c 0.007,0.088 0.027,0.176 0.027,0.262 v 0 c 0,0.509 -0.109,0.994 -0.3,1.431 v 0 l 19.999,13.728 c 0.646,-0.64 1.536,-1.035 2.52,-1.035 v 0 c 0.306,0 0.598,0.048 0.882,0.117 v 0 l 10.449,-22.106 c -0.462,-0.337 -0.83,-0.782 -1.083,-1.293 v 0 z m 24.568,14.69 19.82,-19.823 c -0.385,-0.538 -0.62,-1.18 -0.661,-1.875 v 0 l -5.071,-1.431 c -0.653,0.934 -1.726,1.547 -2.95,1.547 v 0 c -0.308,0 -0.601,-0.049 -0.886,-0.12 v 0 z m -35.103,-9.139 3.727,-3.725 c -0.229,-0.477 -0.37,-1.001 -0.37,-1.564 v 0 c 0,-0.98 0.396,-1.868 1.037,-2.52 v 0 l -13.45,-19.595 7.25,27.058 c 0.085,-0.006 0.162,-0.025 0.247,-0.025 v 0 c 0.559,0 1.084,0.142 1.559,0.371 m 8.605,-8.477 c 0.675,0.355 1.226,0.909 1.568,1.593 v 0 l 32.493,-8.895 c -0.008,-0.088 -0.026,-0.175 -0.026,-0.265 v 0 c 0,-0.754 0.233,-1.455 0.631,-2.035 v 0 l -22.986,-23.349 c -0.571,0.373 -1.254,0.595 -1.988,0.595 v 0 c -0.106,0 -0.209,-0.021 -0.317,-0.031 v 0 z M 130.46,749.271 c 0.068,0.272 0.109,0.55 0.109,0.841 v 0 c 0,0.983 -0.393,1.871 -1.033,2.522 v 0 l 13.727,19.996 c 0.437,-0.19 0.92,-0.295 1.429,-0.295 v 0 c 0.107,0 0.208,0.021 0.311,0.029 v 0 l 9.387,-32.388 c -0.508,-0.261 -0.945,-0.63 -1.278,-1.09 v 0 z m 54.479,12.455 c 1.445,0.406 2.515,1.682 2.611,3.229 v 0 l 5.074,1.428 c 0.358,-0.515 0.853,-0.925 1.426,-1.19 v 0 l -7.229,-26.977 z m -25.347,-24.553 c -0.065,0.606 -0.267,1.171 -0.593,1.65 v 0 l 22.986,23.355 c 0.459,-0.306 1.003,-0.494 1.578,-0.561 v 0 l 1.917,-23.991 c -1.195,-0.337 -2.131,-1.272 -2.475,-2.46 v 0 z m -29.42,10.709 22.364,-10.253 c -0.064,-0.27 -0.106,-0.551 -0.106,-0.84 v 0 c 0,-1.342 0.745,-2.502 1.839,-3.121 v 0 l -1.706,-5.139 c -0.15,0.02 -0.299,0.044 -0.45,0.044 v 0 c -0.745,0 -1.44,-0.227 -2.015,-0.613 v 0 z m 29.303,-12.083 23.004,-1.976 -27.148,-7.272 c -0.319,0.653 -0.828,1.189 -1.459,1.544 v 0 l 1.705,5.139 c 0.147,-0.018 0.3,-0.046 0.452,-0.046 v 0 c 1.646,0 3.017,1.109 3.446,2.611" /></g></g></g></g></g></svg>
