<?xml version="1.0" encoding="UTF-8"?>
<svg width="196px" height="91px" viewBox="0 0 196 91" version="1.1" xmlns="http://www.w3.org/2000/svg" xmlns:xlink="http://www.w3.org/1999/xlink">
    <!-- Generator: Sketch 55 (78076) - https://sketchapp.com -->
    <title>Horizontal_light</title>
    <desc>Created with Sketch.</desc>
    <g id="Horizontal_light" stroke="none" stroke-width="1" fill="none" fill-rule="evenodd">
        <g id="Group" transform="translate(31.000000, 30.245997)" fill-rule="nonzero">
            <path d="M34,20.5022301 L34,12.2348779 C34,11.5150835 34.0828392,10.7747237 34.994071,10.7747237 C35.7810438,10.7747237 35.988142,11.4328213 35.988142,12.090919 L35.988142,12.8929756 L37.5413779,11.6179113 C38.1005428,11.1654692 38.6804175,10.7747237 39.3017119,10.7747237 L40.8963674,10.7747237 C41.6626305,10.7747237 42.3046347,11.0215103 42.8430898,11.5562147 C43.5058038,12.2143123 43.7336117,12.8929756 43.7336117,13.7978599 C43.7336117,14.4765231 43.6093528,15.1757519 42.7602505,15.1757519 C42.0354071,15.1757519 41.7454697,14.5999165 41.7454697,13.9623843 C41.7454697,13.6333355 41.7454697,13.3865488 41.5383716,13.0986311 C41.2898539,12.7490167 40.8135282,12.7490167 40.3372025,12.7490167 L39.7573278,12.7490167 C39.3845511,12.7490167 39.1153236,12.9341067 38.7632568,13.2220244 L35.988142,15.5048008 L35.988142,20.5022301 C35.988142,21.1808933 35.8431733,21.8595566 34.994071,21.8595566 C34.1449687,21.8595566 34,21.1808933 34,20.5022301 Z M54.7098121,12.7490167 L52.2453445,12.7490167 C51.6654697,12.7490167 50.8784969,12.6256234 50.8784969,11.7618702 C50.8784969,10.9186825 51.5826305,10.7747237 52.2453445,10.7747237 L54.9790397,10.7747237 C56.0145303,10.7747237 56.7600835,10.8775514 57.5470564,11.6590424 C58.3133194,12.4199679 58.4168685,13.0163689 58.4375783,14.0035154 L58.6446764,20.7078856 C58.6653862,21.2837211 58.3754489,21.8595566 57.7127349,21.8595566 C57.1949896,21.8595566 56.6772443,21.4276799 56.6979541,20.87241 L55.3311065,21.5716388 C54.7719415,21.8595566 54.7512317,21.8595566 54.1092276,21.8595566 L52.2039248,21.8595566 C51.3134029,21.8595566 50.6713987,21.7567288 49.9465553,21.1603278 C49.1181628,20.4816645 48.9110647,19.7618702 48.9110647,18.7335925 L48.9110647,17.8698393 C48.9110647,16.9238239 49.1388727,16.3274229 49.8844259,15.6693252 C50.5678497,15.0729242 51.3341127,14.9289653 52.2039248,14.9289653 L56.4701461,14.9289653 L56.4701461,14.4765231 C56.4701461,12.9958033 56.1387891,12.7490167 54.7098121,12.7490167 Z M55.165428,16.9032584 L52.2246347,16.9032584 C51.6861795,16.9032584 50.8992067,17.0472172 50.8992067,17.7670116 L50.8992067,19.0832069 C50.8992067,19.7413046 51.7068894,19.8852635 52.183215,19.8852635 L54.3784551,19.8852635 L56.5736952,18.7541581 L56.5736952,18.3222815 C56.5736952,17.2323072 56.263048,16.9032584 55.165428,16.9032584 Z M69.7244259,12.1526157 L69.7244259,19.8852635 L71.2155324,19.8852635 C71.8782463,19.8852635 72.58238,20.0292224 72.58238,20.87241 C72.58238,21.7361632 71.7954071,21.8595566 71.2155324,21.8595566 L66.1623382,21.8595566 C65.5824635,21.8595566 64.7954906,21.7361632 64.7954906,20.87241 C64.7954906,20.0292224 65.4996242,19.8852635 66.1623382,19.8852635 L67.7362839,19.8852635 L67.7362839,12.7490167 L66.1623382,12.7490167 C65.5824635,12.7490167 64.7954906,12.6256234 64.7954906,11.7618702 C64.7954906,10.9186825 65.4996242,10.7747237 66.1623382,10.7747237 L68.2540292,10.7747237 C69.3930689,10.7747237 69.7244259,10.9803792 69.7244259,12.1526157 Z M66.7215031,7.73102185 L66.7215031,6.78500643 C66.7215031,6.08577764 67.1149896,5.85955656 67.6534447,5.85955656 L68.7924843,5.85955656 C69.3309395,5.85955656 69.7244259,6.08577764 69.7244259,6.78500643 L69.7244259,7.73102185 C69.7244259,8.43025064 69.3309395,8.65647172 68.7924843,8.65647172 L67.6534447,8.65647172 C67.1149896,8.65647172 66.7215031,8.43025064 66.7215031,7.73102185 Z M83.6621294,12.9341067 L80.7213361,14.7644409 L80.7213361,20.5022301 C80.7213361,21.1808933 80.5763674,21.8595566 79.7272651,21.8595566 C78.8781628,21.8595566 78.7331942,21.1808933 78.7331942,20.5022301 L78.7331942,12.2348779 C78.7331942,11.5150835 78.8160334,10.7747237 79.7272651,10.7747237 C80.6177871,10.7747237 80.7213361,11.5150835 80.7213361,12.2143123 L80.7213361,12.4816645 L82.3367015,11.4328213 C82.8544468,11.1037725 83.4136117,10.7747237 84.0556159,10.7747237 L85.5260125,10.7747237 C86.2922756,10.7747237 86.7686013,10.9803792 87.3691858,11.494518 C88.2597077,12.2554434 88.2182881,13.0986311 88.2597077,14.1680398 L88.4668058,20.3788368 C88.4875157,21.0780656 88.3839666,21.8595566 87.4934447,21.8595566 C86.685762,21.8595566 86.5200835,21.1808933 86.4993737,20.5227956 L86.2922756,14.435392 C86.2508559,13.2220244 86.1473069,12.7490167 84.9461378,12.7490167 L84.2834238,12.7490167 C84.0763257,12.7490167 83.8692276,12.8107134 83.6621294,12.9341067 Z M99.5465553,8.08063625 L99.5465553,19.8852635 L101.037662,19.8852635 C101.700376,19.8852635 102.404509,20.0292224 102.404509,20.87241 C102.404509,21.7361632 101.617537,21.8595566 101.037662,21.8595566 L95.9844676,21.8595566 C95.4045929,21.8595566 94.61762,21.7361632 94.61762,20.87241 C94.61762,20.0292224 95.3217537,19.8852635 95.9844676,19.8852635 L97.5584134,19.8852635 L97.5584134,8.67703728 L95.9844676,8.67703728 C95.4045929,8.67703728 94.61762,8.55364396 94.61762,7.68989075 C94.61762,6.84670309 95.3217537,6.70274422 95.9844676,6.70274422 L98.0761587,6.70274422 C99.2151983,6.70274422 99.5465553,6.90839974 99.5465553,8.08063625 Z M114.354071,12.7490167 L111.889603,12.7490167 C111.309729,12.7490167 110.522756,12.6256234 110.522756,11.7618702 C110.522756,10.9186825 111.226889,10.7747237 111.889603,10.7747237 L114.623299,10.7747237 C115.658789,10.7747237 116.404342,10.8775514 117.191315,11.6590424 C117.957578,12.4199679 118.061127,13.0163689 118.081837,14.0035154 L118.288935,20.7078856 C118.309645,21.2837211 118.019708,21.8595566 117.356994,21.8595566 C116.839248,21.8595566 116.321503,21.4276799 116.342213,20.87241 L114.975365,21.5716388 C114.4162,21.8595566 114.395491,21.8595566 113.753486,21.8595566 L111.848184,21.8595566 C110.957662,21.8595566 110.315658,21.7567288 109.590814,21.1603278 C108.762422,20.4816645 108.555324,19.7618702 108.555324,18.7335925 L108.555324,17.8698393 C108.555324,16.9238239 108.783132,16.3274229 109.528685,15.6693252 C110.212109,15.0729242 110.978372,14.9289653 111.848184,14.9289653 L116.114405,14.9289653 L116.114405,14.4765231 C116.114405,12.9958033 115.783048,12.7490167 114.354071,12.7490167 Z M114.809687,16.9032584 L111.868894,16.9032584 C111.330438,16.9032584 110.543466,17.0472172 110.543466,17.7670116 L110.543466,19.0832069 C110.543466,19.7413046 111.351148,19.8852635 111.827474,19.8852635 L114.022714,19.8852635 L116.217954,18.7541581 L116.217954,18.3222815 C116.217954,17.2323072 115.907307,16.9032584 114.809687,16.9032584 Z M125.45453,8.0600707 L125.45453,12.2143123 L125.806597,11.8646979 C126.469311,11.2066003 126.862797,10.7747237 127.774029,10.7747237 L129.969269,10.7747237 C130.487015,10.7747237 130.94263,11.0626414 131.439666,11.4739524 L132.12309,12.0497879 C132.910063,12.7284512 133.2,13.2837211 133.2,14.3325643 L133.2,18.3017159 C133.2,19.3505591 132.910063,19.9058291 132.12309,20.5844923 L131.439666,21.1603278 C130.96334,21.5510733 130.383466,21.8595566 129.88643,21.8595566 L127.836159,21.8595566 C127.028476,21.8595566 126.469311,21.3659833 125.910146,20.8518445 L125.45453,20.4199679 L125.45453,20.5433612 C125.45453,21.1808933 125.247432,21.8595566 124.460459,21.8595566 C123.611357,21.8595566 123.466388,21.1603278 123.466388,20.4816645 L123.466388,8.0600707 C123.466388,7.38140746 123.611357,6.70274422 124.460459,6.70274422 C125.309562,6.70274422 125.45453,7.38140746 125.45453,8.0600707 Z M125.45453,15.3814075 L125.45453,17.1089139 C125.45453,17.746446 125.53737,17.9932326 126.055115,18.4251093 L127.194154,19.3916902 C127.442672,19.5973458 127.753319,19.8852635 127.960418,19.8852635 L129.472234,19.8852635 C129.762171,19.8852635 129.948559,19.8235668 130.093528,19.7001735 L130.96334,18.9803792 C131.191148,18.7952892 131.211858,18.3222815 131.211858,17.931536 L131.211858,14.435392 C131.211858,14.0446465 131.108309,13.7361632 130.94263,13.6127699 L130.031399,12.9135411 C129.90714,12.8107134 129.762171,12.7490167 129.555073,12.7490167 L128.167516,12.7490167 C127.898288,12.7490167 127.566931,12.8929756 127.339123,13.0986311 L126.055115,14.209171 C125.723758,14.4765231 125.45453,14.7850064 125.45453,15.3814075 Z" id="rainlab" fill="#222222"></path>
            <path d="M21.1303955,20.6720392 C21.5498998,20.5377932 21.9733559,20.5523859 22.3514658,20.8204259 C22.7660383,21.1143141 23.0860283,21.7724025 23.3605999,22.6635366 C23.5394713,23.2440715 23.6734812,23.8690411 23.7468492,24.4938044 C23.8092719,24.4714365 23.8680471,24.4516874 23.9276993,24.4332719 C24.2939908,24.3201927 24.6134817,24.2782999 24.9573224,24.360473 C25.5226843,24.4955865 25.900294,24.9430586 25.9839397,25.5310869 C26.0720385,26.1504198 25.7945334,26.7082793 25.2290976,26.9563174 C25.1500525,26.9909919 25.071291,27.0179682 24.9917855,27.038259 C25.0330725,27.084021 25.0721475,27.1320817 25.1094427,27.1831514 C25.528558,27.7570617 25.4552941,28.4803217 24.9056774,28.9904657 C24.4289024,29.4329993 23.8211897,29.5056248 23.296881,29.2440754 C23.0817425,29.723359 22.6076948,30 22.0453066,30 C21.591429,30 21.1968921,29.8158248 20.9527869,29.4902478 C20.452893,29.712277 19.8840007,29.5918353 19.4563347,29.1673973 C18.9676633,28.6824142 18.8889855,28.0241536 19.2272349,27.4701405 C18.9963114,27.2790406 18.8355409,26.998416 18.7699189,26.6664001 C18.7338395,26.4838558 18.7228676,26.3077028 18.7456859,26.135465 C18.4019016,26.1778153 18.0191275,26.1593867 17.5744211,26.0996283 C17.3711235,26.0723097 17.1653232,26.037581 16.9162535,25.9905528 C16.8843124,25.9845219 16.8070395,25.9695955 16.722199,25.9532084 C15.6739744,26.4065547 14.7442774,26.732204 13.8783274,26.9602533 C13.1205332,27.1598196 12.4701858,27.274334 11.6654991,27.3702765 C7.90925289,27.818132 4.68701375,26.4060998 2.57346905,23.4895472 C0.538746463,20.681764 -0.334761475,16.6625536 0.115808096,12.1104859 C0.116300916,12.0944337 0.116944443,12.0719742 0.117728702,12.0433929 C0.119551598,11.9769599 0.122102475,11.8786673 0.125374078,11.7487645 C0.131939348,11.4880828 0.141391044,11.1007517 0.153725609,10.5869079 C0.184992634,9.28435977 2.1519657,9.32670595 2.12631286,10.629375 C2.11591143,11.1575669 2.10833058,11.5515742 2.10357334,11.8112227 C2.10120546,11.9404605 2.09954117,12.0361991 2.09858573,12.0980545 C2.09830331,12.1163384 2.09808594,12.1314792 2.0979349,12.1432561 C2.31987421,15.8801182 2.84271584,18.3358041 3.65798258,19.9538007 C3.99193511,20.6165703 4.37389456,21.1405567 4.83971014,21.6058172 C5.21457838,21.9802387 5.58944167,22.277245 6.28647932,22.7753397 C6.34105074,22.8143358 6.53017459,22.9491261 6.54227681,22.9577607 C6.64629796,23.0319765 6.72665462,23.0895789 6.8054624,23.14654 C7.47783468,23.6325208 8.5255587,23.9057788 9.61029751,23.955264 C10.0180763,23.9738666 10.775976,23.8971831 11.4053265,23.7586546 C11.7441149,23.6840826 12.0284831,23.5961993 12.2239563,23.5065566 C12.2644624,23.4879807 12.2994172,23.4700926 12.3283254,23.4534293 C12.4383996,23.0919935 12.5074694,22.3712997 12.5047739,21.3431558 C12.5047739,21.0348604 12.4266412,20.7819597 12.3045106,20.6026173 C12.2475354,20.6306499 12.1832845,20.6642101 12.1120954,20.7032307 C12.0594474,20.7320885 12.0136369,20.757469 11.9669604,20.7839946 C11.9978035,20.8201598 12.0273427,20.8575005 12.055346,20.8960124 C12.5463209,21.5712322 12.3765595,22.4466148 11.5361778,22.8661358 C11.304941,22.9815698 11.0714513,23.047541 10.8267215,23.048354 C10.7178791,23.0487156 10.6112344,23.0356822 10.5087555,23.0098597 C10.2044936,23.3867948 9.71279807,23.5363129 9.19567252,23.4291545 C8.58741205,23.3031111 8.16369655,22.8810955 8.10386931,22.3192374 C7.49966882,22.3753673 6.99739045,22.0212593 6.77787669,21.4463134 C6.58438699,20.9395291 6.66780814,20.4265884 6.99617737,20.0644233 C6.77377182,19.7051988 6.75295441,19.2591417 6.91997484,18.8216852 C7.09690691,18.3582683 7.43335585,18.0127231 7.93470978,17.9329484 C8.07531751,17.5886203 8.36920304,17.3264024 8.75205228,17.1927985 C9.40934821,16.9634203 10.0470252,17.1845241 10.3918492,17.7470023 C10.4454016,17.8343571 10.4891738,17.9241624 10.5262761,18.0189998 C10.6830588,17.8976551 10.8299558,17.7900773 10.9672624,17.696127 C11.4989497,17.3323267 11.9194174,17.1373713 12.3591451,17.1373713 C12.3675589,17.1373713 12.3759701,17.1374355 12.3843789,17.1375639 C12.381848,17.1237644 12.3794938,17.1103587 12.3771391,17.0964635 C12.3760379,17.0899652 12.3752962,17.0855172 12.3737718,17.0763016 C12.3724049,17.0680066 12.3724049,17.0680066 12.3713421,17.0615718 C12.3707603,17.0580696 12.3707603,17.0580696 12.3702829,17.0552303 C12.368286,17.0434026 12.3677112,17.0406194 12.3641316,17.026478 C12.3561181,16.99482 12.3414198,16.9434381 12.3173178,16.8645833 C12.258477,16.6720726 12.1492693,16.3346798 11.9581271,15.7559739 C11.8480361,15.4226602 11.7580087,15.1069271 11.6865212,14.8068245 C11.6083186,14.8690965 11.5275569,14.9237773 11.4415623,14.9707204 C11.224561,15.0891781 10.9853957,15.1537767 10.7180786,15.1287485 C10.2671421,15.0865284 9.83420372,14.8173483 9.1482418,14.2673781 C8.66517941,13.8800827 8.05195363,13.3376226 7.30448786,12.6372488 C7.25857931,12.6654525 7.2135384,12.693256 7.21859248,12.6901639 C7.12664784,12.7464159 7.05240593,12.7896156 6.97380817,12.831091 C6.6730986,12.9897733 6.3984912,13.0787358 6.07028091,13.0609511 C5.54489394,13.0324819 5.12661984,12.7085911 4.92525021,12.2191076 C4.75383647,11.8024401 4.77880363,11.385708 4.96910606,11.0539366 C4.8947578,10.9754992 4.82900772,10.8870589 4.77311392,10.787118 C4.57062298,10.4250542 4.56496977,10.0158159 4.71774057,9.63423343 C4.89036946,9.20305056 5.22957704,8.92832396 5.62938739,8.84290301 C5.63715925,8.35755502 5.92211556,7.93165303 6.40038974,7.71282231 C7.03323741,7.42326767 7.67944208,7.61478265 8.07157017,8.12942374 C8.07829842,8.1382541 8.08492932,8.14712345 8.09146549,8.15603401 C8.3177107,7.96434977 8.58993466,7.86932325 8.87385248,7.86639922 C8.84301706,7.64913965 8.82118701,7.43601567 8.80845158,7.22701918 C8.42595766,6.82079071 8.21023098,6.3887463 8.21023098,5.89905925 C8.21023098,5.54714433 8.3203499,5.0421923 8.54185842,4.30986245 C8.19271911,3.39909227 8.02154543,2.68156545 8.02796539,2.08303842 C8.03714505,1.2272268 8.42462604,0.561524954 9.15434458,0.210410612 C9.82742359,-0.113450827 10.540768,-0.0540167912 11.2606391,0.323795343 C11.7534163,0.582421108 12.2711463,0.994731487 12.9101254,1.61562828 C13.5487826,1.76213135 13.9322362,1.90114163 14.3900983,2.11739861 C14.7859102,2.30434808 15.0586612,2.63960937 15.263731,3.08735768 C15.3880029,3.35869239 15.4918851,3.68445625 15.5801994,4.06941993 C15.6446342,4.13981394 15.7060785,4.2106659 15.7644965,4.28199907 C15.7800115,4.25605502 15.7965312,4.23023783 15.8140728,4.20457116 C16.0903811,3.80027838 16.5295292,3.58271391 17.0087898,3.61555513 C17.0874874,3.62094786 17.1636184,3.6323309 17.2377674,3.6492194 C17.2434939,3.59960028 17.2515945,3.54996679 17.2622201,3.5001259 C17.3956364,2.87431873 17.9172194,2.46644241 18.584333,2.46644241 C19.1782771,2.46644241 19.6673614,2.77531743 19.902501,3.28729325 C19.950836,3.39253451 19.986563,3.49982045 20.0115115,3.609831 C20.5239453,3.42482815 21.074086,3.56477723 21.4434354,3.99794265 C21.7430765,4.34935564 21.816072,4.76539744 21.7056978,5.14413028 C22.0619061,5.38886143 22.2557499,5.79409371 22.2557499,6.25313819 C22.2557499,6.87902526 21.9061225,7.4001011 21.2892259,7.54531719 C21.0956746,7.59087875 20.9111131,7.59170714 20.7169647,7.56572451 C20.6781591,7.56053121 20.6404865,7.55452149 20.6023527,7.54750469 C20.6171408,8.08557897 20.5876848,8.50856961 20.5078691,8.83389579 C20.4420244,9.10227655 20.2976193,9.32169443 20.1038342,9.50172261 C19.9755035,9.62094301 19.8301611,9.71876735 19.6628306,9.80836299 C19.4572813,9.91842262 19.2816588,9.99041664 18.905649,10.1303154 C19.2215971,10.5142546 19.4745624,10.8580906 19.7384724,11.2804372 C20.5478662,12.5757452 21.0774812,14.0784397 21.234009,15.8819261 C21.3637331,17.3765831 21.2270416,19.015229 20.7933953,20.8100432 C20.9098553,20.7528203 21.0207672,20.7071215 21.1303955,20.6720392 Z M21.7781354,21.6173545 C21.4483304,21.3835576 20.6217105,22.0444404 19.0078509,23.2368047 C22.5942235,13.6978906 17.5474039,10.4944698 17.5063169,9.91400854 C17.4652299,9.33354724 19.4123238,9.16071891 19.549357,8.60217607 C19.6407125,8.22981418 19.6425397,7.57066477 19.5548386,6.62472783 C19.8400719,6.51127357 20.0397404,6.45454643 20.1538442,6.45454643 C20.5294538,6.45454643 21.2692221,6.89809519 21.2692221,6.25313819 C21.2692221,5.60818119 20.4221368,6.00189164 20.1538442,6.04183177 C20.0288521,6.06043909 19.8008034,6.03381234 19.4696983,5.96195151 C19.5476997,5.80889953 19.6371306,5.68464135 19.7379908,5.58917698 C19.8927155,5.44272985 21.072228,5.07837961 20.6904293,4.6306139 C20.3086306,4.18284819 19.7916493,5.10989544 19.6172592,5.2430292 C19.5248742,5.31355822 19.3524329,5.40864879 19.0999352,5.52830093 C18.9479534,5.29947028 18.883403,5.12449944 18.906284,5.00338843 C18.9465279,4.79037441 19.4072777,3.44572343 18.584333,3.44572343 C17.7613882,3.44572343 18.5691909,4.87652638 18.584333,5.06995531 C18.5912263,5.15801336 18.5509825,5.32221167 18.4636013,5.56255023 C18.2605901,5.53551366 18.1219723,5.48669794 18.0477479,5.41610309 C17.7257969,5.10989544 16.9879924,4.23121262 16.6304596,4.75435253 C16.2729269,5.27749245 17.4977482,5.66905724 17.8465285,5.78887762 C17.9515335,5.82495115 18.1080375,5.93589595 18.3160404,6.12171203 C18.1203764,6.24217371 17.977287,6.3043028 17.8867724,6.30809929 C17.5947259,6.32034872 16.8530687,6.17325793 16.9209193,6.66756045 C16.9887699,7.16186297 17.6707256,6.77454025 17.9538455,6.66756045 C18.0400575,6.63498438 18.1838046,6.62070684 18.385087,6.62472783 C18.5817853,7.08482413 18.4584223,7.65899324 18.3055575,7.90742019 C18.1526927,8.15584714 17.3981647,8.55699349 16.6087296,8.61250252 L15.6651597,7.39867623 C15.6651597,6.5817307 15.5923699,5.99280434 15.4467902,5.63189715 C15.3012104,5.27098996 15.0432654,4.90860475 14.6729551,4.54474151 C14.4988038,3.65631324 14.2632289,3.14196003 13.9662301,3.00168189 C13.6692314,2.86140374 13.3110041,2.6977459 12.4180148,2.51070837 C11.1420258,1.23467674 10.3224942,0.736600927 9.58465158,1.09162429 C8.84680896,1.44664765 8.80136556,2.34853583 9.58632318,4.27054282 C9.32661359,5.08883202 9.19675879,5.63167083 9.19675879,5.89905925 C9.19675879,6.16644767 9.39171739,6.46527775 9.78163459,6.79554948 C9.78163459,7.19300423 9.82253952,7.61383867 9.9043494,8.05805281 C9.98615927,8.50226694 10.4218198,8.83603219 11.211331,9.05934855 L11.6662344,9.63980985 C11.3629654,11.1447095 10.7955261,12.6471403 10.4922572,12.6471403 C10.1889882,12.6471403 9.38734602,12.1770854 8.69795133,11.1394268 C8.86522397,10.9029492 8.99203201,10.7702915 9.07837545,10.7414535 C9.39726735,10.6349465 10.0946804,10.5748424 9.91378774,10.1423516 C9.73289509,9.70986081 9.31012955,10.1423516 8.97476389,10.4944698 C8.93144959,10.5399478 8.83917874,10.5399478 8.69795133,10.4944698 C8.67835992,10.2070328 8.69944778,10.0135457 8.76121493,9.91400854 C8.97476389,9.56987645 9.63955822,9.13659964 9.07924114,8.89089426 C8.51892406,8.64518889 8.5723251,9.46336944 8.45159346,9.68969683 C8.38987725,9.80539202 8.2467879,9.97846591 8.02232542,10.2089185 C7.77214771,9.99368241 7.63352991,9.82060852 7.606472,9.68969683 C7.49915499,9.17047516 7.34686464,8.35807121 6.81335155,8.60217607 C6.27983845,8.84628094 6.96256994,9.46336944 7.27110634,9.86277072 C7.34255341,9.95525916 7.40344257,10.1658255 7.45377382,10.4944698 C7.25540531,10.5091365 7.0827276,10.4672062 6.93574068,10.368679 C6.47892747,10.0624714 5.83855855,9.4862731 5.63452193,9.99590448 C5.4304853,10.5055359 6.11744848,10.6349465 6.86866755,10.7015134 C6.98196803,10.7115532 7.15188663,10.822498 7.37842335,11.0343478 C7.17797356,11.1929838 7.03041267,11.2773018 6.93574068,11.287302 C6.35145957,11.3490194 5.60752997,11.287302 5.83855855,11.8488795 C6.06958713,12.4104571 6.70097986,11.8072611 7.04305769,11.6600765 C7.17306196,11.60414 7.39216753,11.60414 7.70037439,11.6600765 C9.4205738,13.2894708 10.4573547,14.1207101 10.8107172,14.1537946 C11.3407609,14.2034213 12.522644,11.8026072 12.522644,12.171358 C12.522644,12.5401088 12.21706,13.3966537 12.8955557,15.4508804 C13.5740514,17.5051071 13.1821533,16.403722 13.4962719,17.5199831 C13.7056843,18.2641571 13.8541836,18.8137422 13.94177,19.1687384 C13.2442938,18.4673477 12.7167522,18.1166523 12.3591451,18.1166523 C12.0015381,18.1166523 11.2498205,18.6310055 10.1039923,19.6597119 C9.92549406,19.4741979 9.81948532,19.3105401 9.78596606,19.1687384 C9.66325125,18.649599 9.66325125,17.9128488 9.07924114,18.1166523 C8.49523103,18.3204558 9.07837545,18.9558066 9.39726735,19.3152678 C9.47437581,19.4021859 9.53028918,19.5796976 9.56500745,19.8478028 C9.2926643,19.7574236 9.09591645,19.6597921 8.97476389,19.5549085 C8.69795133,19.3152678 8.11024373,18.4673976 7.84247253,19.1687384 C7.57470133,19.8700792 8.53208122,19.7546092 8.85403225,19.8478028 C8.97572367,19.8830283 9.15680204,20.0294754 9.39726735,20.2871442 C9.07347229,20.4469047 8.84036695,20.526785 8.69795133,20.526785 C8.21013019,20.526785 7.48180396,20.526785 7.70037439,21.0992602 C7.91894482,21.6717354 8.45159346,21.0992602 8.85403225,20.8520762 C8.97691823,20.7765977 9.21390996,20.7347342 9.56500745,20.7264856 C9.56418397,21.0179946 9.53182811,21.222133 9.46793984,21.338901 C9.21622716,21.7989537 8.78316023,22.343283 9.39726735,22.4705379 C10.0113745,22.5977929 9.78596606,21.8340232 9.78596606,21.4320946 C9.78596606,21.289902 9.8919748,21.054699 10.1039923,20.7264856 C10.370685,21.0052601 10.5040313,21.2093986 10.5040313,21.338901 C10.5040313,21.6051685 10.4730224,22.3007249 11.0929476,21.9912564 C11.7128729,21.6817879 11.0003725,21.2057672 10.8107172,21.0992602 C10.7112514,21.043402 10.6090227,20.8525769 10.5040313,20.526785 C11.296497,20.0358115 12.0682446,19.5412787 12.4258517,19.5412787 C12.7834587,19.5412787 13.4913017,20.1975509 13.4913017,21.3431558 C13.4946152,22.6055884 13.3976383,23.4706016 13.2003712,23.9381954 C12.9044705,24.6395861 10.4907873,24.975746 9.56500745,24.9335125 C8.59320732,24.8891796 7.21489247,24.6538447 6.22476549,23.9381954 C3.83907307,22.2138519 1.63696327,21.0992602 1.11137083,12.171358 C1.10962036,12.1878083 1.11915458,11.6674342 1.13997348,10.6102358 C1.11528754,11.6386234 1.10213384,12.1609066 1.10051237,12.1770854 C0.213724811,21.0253338 4.56833379,27.2301486 11.547851,26.3979839 C12.7481008,26.2548786 14.2016018,26.0045334 16.6058615,24.9335125 C17.2415809,25.0508843 18.3056581,25.3025657 18.8974742,25.1035949 C20.1181459,24.6932004 20.7018516,23.5367453 20.9889131,23.5367453 C21.2730711,23.5367453 21.8331234,24.9224687 21.5489654,25.7056883 C21.2146657,25.9098268 20.9839432,26.011896 20.8567981,26.011896 C20.1538442,26.011896 19.6172592,25.8670199 19.7379908,26.4778641 C19.8587225,27.0887083 20.448966,26.544431 20.8567981,26.3979839 C20.9767077,26.3549259 21.1716577,26.3549259 21.4416484,26.3979839 C21.2637205,26.8040957 21.1161596,27.0703632 20.9989657,27.1967864 C20.6904293,27.5296209 19.6216768,27.9467198 20.1538442,28.4748706 C20.6860117,29.0030213 20.9989657,27.9423355 21.1599412,27.5961877 C21.2479714,27.4068953 21.4491908,27.114001 21.7635994,26.7175049 C21.8172579,27.2614889 21.8440872,27.6120745 21.8440872,27.7692616 C21.8440872,28.1420362 21.3652114,29.020719 22.0453066,29.020719 C22.7254017,29.020719 22.3270137,28.1819763 22.1995754,27.7692616 C22.1517269,27.614302 22.1852632,27.2637164 22.3001845,26.7175049 C22.5647211,26.8940326 22.7391113,27.0316042 22.8233549,27.1302196 C23.0759344,27.4258885 23.5958524,28.8655288 24.2318907,28.2751699 C24.8679289,27.6848111 23.4150139,27.2412361 23.1587206,26.9837724 C23.0062739,26.8306297 22.9123715,26.5861141 22.8770134,26.2502256 C23.2794691,26.0402967 23.5567047,26.0007936 23.7087202,25.9985826 C23.9896228,25.9944969 25.1115822,26.4024995 25.0071021,25.668006 C24.902622,24.9335125 23.9487874,25.5058848 23.574574,25.5991813 C23.4420458,25.6322224 23.1916394,25.5434666 22.8233549,25.4660476 C22.8041243,23.654259 22.1079404,21.8511514 21.7781354,21.6173545 Z M1.30722724,9.17791957 C0.903301381,9.1247255 0.618958414,8.75746777 0.672992326,8.35720007 C0.677298209,8.32530332 0.681694674,8.29356401 0.686181783,8.26198201 C0.742956569,7.86237918 1.11622091,7.58444575 1.51948348,7.64033916 C1.92303951,7.69627324 2.20483165,8.06546358 2.14801517,8.46535985 C2.14400003,8.49361996 2.14006334,8.5220402 2.13620517,8.55062042 C2.082209,8.95060853 1.7108735,9.23107683 1.30722724,9.17791957 Z M2.87557466,6.12446882 C2.75030729,6.48287002 2.35683812,6.67245224 1.99679313,6.54709246 C1.63734205,6.42193947 1.4479959,6.03046578 1.57305833,5.67265091 C1.58412197,5.64099685 1.59534157,5.6095986 1.60671746,5.57845592 C1.73699256,5.22181406 2.13309665,5.03772186 2.49135284,5.16808529 C2.84899759,5.29822623 3.03284034,5.69227813 2.90278578,6.04831622 C2.89360493,6.07344979 2.88453443,6.09883409 2.87557466,6.12446882 Z M3.14507349,4.17669604 C2.89273094,3.92523859 2.89176921,3.51727582 3.14291781,3.26463415 C3.16883437,3.23856351 3.19505261,3.21298772 3.22157169,3.18790846 C3.48138092,2.94220528 3.89158944,2.95391339 4.13692977,3.21396586 C4.38136815,3.4730623 4.36975683,3.88086285 4.11090368,4.12566185 C4.09405619,4.14159463 4.07735612,4.15788603 4.0608028,4.17453775 C3.80872557,4.42811358 3.39834916,4.42908334 3.14507349,4.17669604 Z" id="Path-9-Copy-3" fill="#009792"></path>
        </g>
    </g>
</svg>